<?xml version="1.0" encoding="utf-8"?>
<!-- Generator: Adobe Illustrator 17.0.0, SVG Export Plug-In . SVG Version: 6.00 Build 0)  -->
<!DOCTYPE svg PUBLIC "-//W3C//DTD SVG 1.1//EN" "http://www.w3.org/Graphics/SVG/1.1/DTD/svg11.dtd">
<svg version="1.1" id="Layer_1" xmlns="http://www.w3.org/2000/svg" xmlns:xlink="http://www.w3.org/1999/xlink" x="0px" y="0px"
	 width="34.241px" height="36.139px" viewBox="0 0 34.241 36.139" enable-background="new 0 0 34.241 36.139" xml:space="preserve">
<g>
	<path fill="#F3EFD3" d="M13.88,5.508c7.302,0,13.222,5.92,13.222,13.222s-5.92,13.223-13.222,13.223S0.657,26.033,0.657,18.731
		S6.577,5.508,13.88,5.508z"/>
	<g>
		<defs>
			<circle id="SVGID_3_" cx="13.88" cy="18.731" r="13.223"/>
		</defs>
		<clipPath id="SVGID_1_">
			<use xlink:href="#SVGID_3_"  overflow="visible"/>
		</clipPath>
		<g clip-path="url(#SVGID_1_)">
			<path fill="#EDC55C" d="M26.965,28.069L12.204,13.307L24.015,1.496L22.52,0L10.709,11.811L1.5,2.603L0,4.104l17.934,17.935
				L5.33,34.643l1.496,1.496l12.604-12.604l6.034,6.034L26.965,28.069z"/>
			<path fill="#CAC6A4" d="M17.318,14.465l-0.002-3.401l7.14,6.917l-0.006,3.392L17.318,14.465z"/>
			<path fill="#D9D4B2" d="M34.241,11.585l-0.015-3.439l-9.769,9.791v3.446L34.241,11.585z"/>
			<path fill="#E3DDBB" d="M17.294,11.068l8.51-8.64l7.14,7.289l-8.485,8.475L17.294,11.068z"/>
			<path fill="#E0584D" d="M10.707,11.06c2.774,0,5.022,2.239,5.022,5c0,0.054-0.025,1.339-0.456,2.255
				c-1.237,2.84-4.561,5.987-4.566,5.971c-0.005,0.011-3.315-3.117-4.558-5.954c-0.369-0.672-0.464-2.163-0.464-2.272
				C5.685,13.299,7.933,11.06,10.707,11.06z"/>
			<path fill="#FFFFFF" d="M10.706,13.442c-1.46,0-2.644,1.184-2.644,2.644c0,1.46,1.184,2.644,2.644,2.644s2.644-1.184,2.644-2.644
				C13.351,14.626,12.166,13.442,10.706,13.442z M10.706,17.673c-0.876,0-1.587-0.711-1.587-1.587c0-0.876,0.711-1.587,1.587-1.587
				s1.587,0.71,1.587,1.587C12.293,16.963,11.582,17.673,10.706,17.673z"/>
		</g>
	</g>
</g>
<g>
</g>
<g>
</g>
<g>
</g>
<g>
</g>
<g>
</g>
<g>
</g>
</svg>
