<?xml version="1.0" encoding="utf-8"?>
<!-- Generator: Adobe Illustrator 17.0.0, SVG Export Plug-In . SVG Version: 6.00 Build 0)  -->
<!DOCTYPE svg PUBLIC "-//W3C//DTD SVG 1.1//EN" "http://www.w3.org/Graphics/SVG/1.1/DTD/svg11.dtd">
<svg version="1.1" id="Layer_1" xmlns="http://www.w3.org/2000/svg" xmlns:xlink="http://www.w3.org/1999/xlink" x="0px" y="0px"
	 width="612px" height="792px" viewBox="0 0 612 792" enable-background="new 0 0 612 792" xml:space="preserve">
<g>
	<g>
		<g>
			<g>
				<g>
					<circle fill="#A2D3DE" cx="304.017" cy="394.637" r="30.112"/>
				</g>
			</g>
		</g>
	</g>
	<g>
		<g>
			<g>
				<g>
					<path fill="#6DC178" d="M325.31,373.345c11.759,11.759,11.76,30.824-0.001,42.584c-11.758,11.759-30.824,11.759-42.583,0
						L325.31,373.345z"/>
				</g>
			</g>
		</g>
	</g>
	<g>
		<g>
			<path fill="#FFFFFF" d="M330.586,380.463c-0.23-0.431-0.47-0.855-0.721-1.272c-27.878,10.861-40.189,37.022-41.891,40.923
				c0.411,0.26,0.828,0.509,1.253,0.749C290.508,417.87,302.576,391.273,330.586,380.463z"/>
		</g>
	</g>
	<g>
		<g>
			<g>
				<path fill="#CC3532" d="M304.105,374.732c-7.331,0-13.274,5.943-13.274,13.273c0,9.655,12.527,22.564,13.653,22.564
					c1.126,0,12.892-14.047,12.892-22.564C317.376,380.675,311.435,374.732,304.105,374.732z M304.041,392.441
					c-2.878,0-5.209-2.268-5.209-5.067s2.331-5.069,5.209-5.069c2.877,0,5.209,2.27,5.209,5.069S306.918,392.441,304.041,392.441z"
					/>
			</g>
			<g>
				<path fill="#BA312D" d="M304.484,410.806c-1.172,0-13.891-13.047-13.891-22.802c0-7.449,6.062-13.51,13.512-13.51
					c7.448,0,13.508,6.061,13.508,13.51C317.614,396.474,305.779,410.806,304.484,410.806z M304.105,374.969
					c-7.188,0-13.037,5.847-13.037,13.035c0,9.69,12.311,22.093,13.414,22.325c1.126-0.291,12.656-13.881,12.656-22.325
					C317.138,380.817,311.292,374.969,304.105,374.969z M304.041,392.679c-3.003,0-5.446-2.38-5.446-5.305
					c0-2.927,2.443-5.307,5.446-5.307s5.446,2.38,5.446,5.307C309.487,390.299,307.044,392.679,304.041,392.679z M304.041,382.542
					c-2.74,0-4.971,2.167-4.971,4.832c0,2.663,2.231,4.83,4.971,4.83c2.741,0,4.971-2.166,4.971-4.83
					C309.012,384.71,306.782,382.542,304.041,382.542z"/>
			</g>
		</g>
	</g>
</g>
<g>
</g>
<g>
</g>
<g>
</g>
<g>
</g>
<g>
</g>
<g>
</g>
</svg>
