<?xml version="1.0" encoding="utf-8"?>
<!-- Generator: Adobe Illustrator 17.0.0, SVG Export Plug-In . SVG Version: 6.00 Build 0)  -->
<!DOCTYPE svg PUBLIC "-//W3C//DTD SVG 1.1//EN" "http://www.w3.org/Graphics/SVG/1.1/DTD/svg11.dtd">
<svg version="1.1" xmlns="http://www.w3.org/2000/svg" xmlns:xlink="http://www.w3.org/1999/xlink" x="0px" y="0px" width="1280px"
	 height="101.771px" viewBox="0 0 1280 101.771" enable-background="new 0 0 1280 101.771" xml:space="preserve">
<g id="background">
	<g>
		<rect x="-32.251" y="0" opacity="0.6" fill="#010101" width="1344.502" height="101.771"/>
	</g>
	<line fill="none" stroke="#FFFFFF" stroke-width="0.25" stroke-miterlimit="10" x1="508.044" y1="20" x2="508.044" y2="76"/>
</g>
<g id="menumain">
	<g id="beer">
		<g>
			<path fill="#FFFFFF" d="M959.501,63.751c-0.58,0.3-1.86,0.601-3.48,0.601c-4.281,0-6.882-2.681-6.882-6.782
				c0-4.44,3.081-7.121,7.202-7.121c1.619,0,2.779,0.34,3.279,0.6l-0.539,1.961c-0.641-0.28-1.521-0.521-2.641-0.521
				c-2.74,0-4.721,1.721-4.721,4.961c0,2.961,1.74,4.861,4.701,4.861c1,0,2.039-0.2,2.68-0.5L959.501,63.751z"/>
			<path fill="#FFFFFF" d="M961.599,50.849c0.92-0.16,2.301-0.28,3.721-0.28c1.94,0,3.261,0.32,4.16,1.08
				c0.74,0.62,1.161,1.561,1.161,2.7c0,1.741-1.181,2.921-2.44,3.381v0.061c0.96,0.359,1.54,1.3,1.881,2.601
				c0.42,1.68,0.779,3.24,1.06,3.761h-2.54c-0.201-0.4-0.521-1.501-0.9-3.181c-0.381-1.761-1.021-2.32-2.421-2.36h-1.24v5.541h-2.44
				V50.849z M964.039,56.81h1.46c1.66,0,2.701-0.88,2.701-2.221c0-1.48-1.041-2.16-2.641-2.16c-0.78,0-1.28,0.06-1.521,0.12V56.81z"
				/>
			<path fill="#FFFFFF" d="M975.82,60.33l-1.161,3.821h-2.54l4.32-13.483h3.141l4.381,13.483h-2.641l-1.22-3.821H975.82z
				 M979.68,58.47l-1.061-3.32c-0.26-0.82-0.479-1.74-0.681-2.521H977.9c-0.2,0.78-0.4,1.72-0.641,2.521l-1.04,3.32H979.68z"/>
			<path fill="#FFFFFF" d="M985.838,50.668h7.782v2.02h-5.322v3.721h4.961v2.021h-4.961v5.722h-2.46V50.668z"/>
			<path fill="#FFFFFF" d="M998.599,52.729h-3.842v-2.06h10.183v2.06h-3.881v11.423h-2.46V52.729z"/>
			<path fill="#FFFFFF" d="M1010.658,50.849c0.78-0.16,2.2-0.28,3.58-0.28c1.82,0,2.941,0.22,3.861,0.86
				c0.84,0.5,1.4,1.38,1.4,2.521c0,1.24-0.78,2.38-2.24,2.92v0.04c1.42,0.36,2.721,1.48,2.721,3.341c0,1.2-0.521,2.141-1.301,2.781
				c-0.96,0.84-2.541,1.26-5.001,1.26c-1.36,0-2.4-0.1-3.021-0.18V50.849z M1013.098,56.169h1.261c1.699,0,2.66-0.8,2.66-1.939
				c0-1.261-0.961-1.841-2.521-1.841c-0.72,0-1.14,0.04-1.4,0.1V56.169z M1013.098,62.371c0.319,0.04,0.74,0.06,1.3,0.06
				c1.58,0,2.98-0.6,2.98-2.261c0-1.56-1.359-2.2-3.061-2.2h-1.22V62.371z"/>
			<path fill="#FFFFFF" d="M1029.719,58.17h-5.081v3.961h5.682v2.021h-8.143V50.668h7.842v2.02h-5.381v3.48h5.081V58.17z"/>
			<path fill="#FFFFFF" d="M1040.019,58.17h-5.081v3.961h5.681v2.021h-8.141V50.668h7.842v2.02h-5.382v3.48h5.081V58.17z"/>
			<path fill="#FFFFFF" d="M1042.778,50.849c0.92-0.16,2.3-0.28,3.721-0.28c1.94,0,3.261,0.32,4.161,1.08
				c0.74,0.62,1.16,1.561,1.16,2.7c0,1.741-1.18,2.921-2.441,3.381v0.061c0.961,0.359,1.541,1.3,1.881,2.601
				c0.42,1.68,0.78,3.24,1.061,3.761h-2.541c-0.199-0.4-0.52-1.501-0.9-3.181c-0.379-1.761-1.02-2.32-2.42-2.36h-1.24v5.541h-2.44
				V50.849z M1045.218,56.81h1.461c1.66,0,2.699-0.88,2.699-2.221c0-1.48-1.039-2.16-2.64-2.16c-0.78,0-1.28,0.06-1.521,0.12V56.81z
				"/>
			<path fill="#FFFFFF" d="M1070.259,57.27c0,4.521-2.74,7.102-6.461,7.102c-3.801,0-6.201-2.9-6.201-6.861
				c0-4.141,2.6-7.062,6.4-7.062C1067.939,50.448,1070.259,53.429,1070.259,57.27z M1060.197,57.47c0,2.74,1.381,4.921,3.741,4.921
				c2.38,0,3.721-2.2,3.721-5.021c0-2.541-1.261-4.941-3.721-4.941C1061.497,52.429,1060.197,54.689,1060.197,57.47z"/>
			<path fill="#FFFFFF" d="M1072.376,64.151V50.668h2.801l3.48,5.781c0.9,1.501,1.681,3.061,2.301,4.521h0.04
				c-0.159-1.801-0.22-3.541-0.22-5.602v-4.701h2.28v13.483h-2.54l-3.521-5.922c-0.859-1.479-1.76-3.141-2.42-4.66l-0.061,0.02
				c0.1,1.74,0.12,3.521,0.12,5.741v4.821H1072.376z"/>
			<path fill="#FFFFFF" d="M1091.818,52.729h-3.842v-2.06h10.183v2.06h-3.881v11.423h-2.46V52.729z"/>
			<path fill="#FFFFFF" d="M1100.977,60.33l-1.161,3.821h-2.54l4.321-13.483h3.141l4.381,13.483h-2.641l-1.221-3.821H1100.977z
				 M1104.837,58.47l-1.061-3.32c-0.26-0.82-0.479-1.74-0.68-2.521h-0.04c-0.2,0.78-0.399,1.72-0.64,2.521l-1.041,3.32H1104.837z"/>
			<path fill="#FFFFFF" d="M1110.995,50.849c0.881-0.16,2.102-0.28,3.762-0.28c1.8,0,3.12,0.38,3.98,1.101
				c0.8,0.659,1.32,1.72,1.32,2.98c0,1.28-0.4,2.34-1.16,3.061c-0.98,0.98-2.521,1.44-4.262,1.44c-0.459,0-0.88-0.021-1.199-0.08
				v5.081h-2.441V50.849z M1113.437,57.13c0.299,0.08,0.699,0.1,1.199,0.1c1.841,0,2.961-0.9,2.961-2.48
				c0-1.5-1.04-2.301-2.74-2.301c-0.68,0-1.16,0.061-1.42,0.12V57.13z"/>
		</g>
		<polygon fill="#FFFFFF" points="1034.587,31.849 1035.687,35.234 1039.246,35.234 1036.367,37.327 1037.466,40.712 
			1034.587,38.62 1031.707,40.712 1032.807,37.327 1029.927,35.234 1033.487,35.234 		"/>
		<rect x="941.587" y="25.902" opacity="0" fill="#FFFFFF" width="186.664" height="49.967"/>
	</g>
	<g id="catering">
		<g>
			<path fill="#FFFFFF" d="M823.802,63.751c-0.58,0.3-1.86,0.601-3.481,0.601c-4.28,0-6.881-2.681-6.881-6.782
				c0-4.44,3.08-7.121,7.201-7.121c1.62,0,2.78,0.34,3.28,0.6l-0.54,1.961c-0.64-0.28-1.52-0.521-2.641-0.521
				c-2.74,0-4.721,1.721-4.721,4.961c0,2.961,1.74,4.861,4.701,4.861c1,0,2.04-0.2,2.681-0.5L823.802,63.751z"/>
			<path fill="#FFFFFF" d="M828.741,60.33l-1.161,3.821h-2.54l4.321-13.483h3.141l4.381,13.483h-2.641l-1.221-3.821H828.741z
				 M832.601,58.47l-1.061-3.32c-0.26-0.82-0.479-1.74-0.68-2.521h-0.04c-0.2,0.78-0.4,1.72-0.641,2.521l-1.04,3.32H832.601z"/>
			<path fill="#FFFFFF" d="M839.72,52.729h-3.841v-2.06h10.182v2.06h-3.881v11.423h-2.46V52.729z"/>
			<path fill="#FFFFFF" d="M855.181,58.17H850.1v3.961h5.681v2.021h-8.142V50.668h7.842v2.02H850.1v3.48h5.081V58.17z"/>
			<path fill="#FFFFFF" d="M857.939,50.849c0.92-0.16,2.301-0.28,3.721-0.28c1.94,0,3.261,0.32,4.161,1.08
				c0.74,0.62,1.16,1.561,1.16,2.7c0,1.741-1.181,2.921-2.44,3.381v0.061c0.96,0.359,1.54,1.3,1.881,2.601
				c0.42,1.68,0.779,3.24,1.06,3.761h-2.54c-0.2-0.4-0.521-1.501-0.9-3.181c-0.38-1.761-1.021-2.32-2.421-2.36h-1.24v5.541h-2.44
				V50.849z M860.379,56.81h1.461c1.66,0,2.7-0.88,2.7-2.221c0-1.48-1.04-2.16-2.641-2.16c-0.78,0-1.28,0.06-1.521,0.12V56.81z"/>
			<path fill="#FFFFFF" d="M871.78,50.668v13.483h-2.461V50.668H871.78z"/>
			<path fill="#FFFFFF" d="M874.599,64.151V50.668h2.8l3.481,5.781c0.9,1.501,1.68,3.061,2.3,4.521h0.04
				c-0.159-1.801-0.22-3.541-0.22-5.602v-4.701h2.28v13.483h-2.54l-3.521-5.922c-0.86-1.479-1.761-3.141-2.421-4.66l-0.061,0.02
				c0.101,1.74,0.12,3.521,0.12,5.741v4.821H874.599z"/>
			<path fill="#FFFFFF" d="M898.921,63.531c-0.86,0.319-2.541,0.76-4.341,0.76c-2.281,0-4.001-0.58-5.281-1.8
				c-1.2-1.141-1.9-2.921-1.881-4.962c0-4.261,3.041-7.001,7.502-7.001c1.66,0,2.961,0.34,3.581,0.64l-0.541,1.98
				c-0.739-0.319-1.64-0.58-3.061-0.58c-2.88,0-4.9,1.7-4.9,4.842c0,3.061,1.88,4.881,4.681,4.881c0.88,0,1.54-0.12,1.86-0.28v-3.36
				h-2.381v-1.94h4.762V63.531z"/>
		</g>
		<polygon fill="#FFFFFF" points="856.368,31.849 857.468,35.234 861.028,35.234 858.148,37.327 859.248,40.712 856.368,38.62 
			853.489,40.712 854.589,37.327 851.709,35.234 855.268,35.234 		"/>
		<rect x="799.251" y="26.016" opacity="0" fill="#FFFFFF" width="112" height="49.967"/>
	</g>
	<g id="happenings_1_">
		<g>
			<path fill="#FFFFFF" d="M653.362,50.668v5.401h5.701v-5.401h2.46v13.483h-2.46V58.21h-5.701v5.941h-2.461V50.668H653.362z"/>
			<path fill="#FFFFFF" d="M667.041,60.33l-1.16,3.821h-2.541l4.321-13.483h3.141l4.381,13.483h-2.641l-1.22-3.821H667.041z
				 M670.903,58.47l-1.061-3.32c-0.26-0.82-0.48-1.74-0.681-2.521h-0.04c-0.199,0.78-0.399,1.72-0.64,2.521l-1.04,3.32H670.903z"/>
			<path fill="#FFFFFF" d="M677.061,50.849c0.88-0.16,2.101-0.28,3.761-0.28c1.8,0,3.12,0.38,3.98,1.101
				c0.8,0.659,1.32,1.72,1.32,2.98c0,1.28-0.4,2.34-1.16,3.061c-0.98,0.98-2.521,1.44-4.261,1.44c-0.46,0-0.881-0.021-1.2-0.08
				v5.081h-2.44V50.849z M679.501,57.13c0.3,0.08,0.7,0.1,1.2,0.1c1.84,0,2.96-0.9,2.96-2.48c0-1.5-1.04-2.301-2.74-2.301
				c-0.68,0-1.16,0.061-1.42,0.12V57.13z"/>
			<path fill="#FFFFFF" d="M688.241,50.849c0.88-0.16,2.101-0.28,3.761-0.28c1.8,0,3.12,0.38,3.98,1.101
				c0.8,0.659,1.32,1.72,1.32,2.98c0,1.28-0.4,2.34-1.16,3.061c-0.98,0.98-2.521,1.44-4.261,1.44c-0.46,0-0.881-0.021-1.2-0.08
				v5.081h-2.44V50.849z M690.681,57.13c0.3,0.08,0.7,0.1,1.2,0.1c1.84,0,2.96-0.9,2.96-2.48c0-1.5-1.04-2.301-2.74-2.301
				c-0.68,0-1.16,0.061-1.42,0.12V57.13z"/>
			<path fill="#FFFFFF" d="M706.962,58.17h-5.081v3.961h5.681v2.021h-8.142V50.668h7.842v2.02h-5.381v3.48h5.081V58.17z"/>
			<path fill="#FFFFFF" d="M709.72,64.151V50.668h2.801l3.48,5.781c0.9,1.501,1.681,3.061,2.301,4.521h0.04
				c-0.16-1.801-0.22-3.541-0.22-5.602v-4.701h2.28v13.483h-2.541l-3.521-5.922c-0.86-1.479-1.761-3.141-2.421-4.66l-0.06,0.02
				c0.1,1.74,0.12,3.521,0.12,5.741v4.821H709.72z"/>
			<path fill="#FFFFFF" d="M725.701,50.668v13.483h-2.46V50.668H725.701z"/>
			<path fill="#FFFFFF" d="M728.52,64.151V50.668h2.801l3.48,5.781c0.9,1.501,1.681,3.061,2.301,4.521h0.04
				c-0.16-1.801-0.22-3.541-0.22-5.602v-4.701h2.28v13.483h-2.541l-3.521-5.922c-0.86-1.479-1.761-3.141-2.421-4.66l-0.06,0.02
				c0.1,1.74,0.12,3.521,0.12,5.741v4.821H728.52z"/>
			<path fill="#FFFFFF" d="M752.842,63.531c-0.86,0.319-2.541,0.76-4.341,0.76c-2.281,0-4.001-0.58-5.281-1.8
				c-1.2-1.141-1.9-2.921-1.881-4.962c0-4.261,3.041-7.001,7.502-7.001c1.66,0,2.961,0.34,3.581,0.64l-0.541,1.98
				c-0.739-0.319-1.64-0.58-3.061-0.58c-2.88,0-4.9,1.7-4.9,4.842c0,3.061,1.88,4.881,4.681,4.881c0.88,0,1.54-0.12,1.86-0.28v-3.36
				h-2.381v-1.94h4.762V63.531z"/>
			<path fill="#FFFFFF" d="M755.299,61.471c0.801,0.46,2.001,0.86,3.261,0.86c1.58,0,2.461-0.74,2.461-1.841
				c0-1.021-0.681-1.62-2.4-2.24c-2.221-0.801-3.642-1.98-3.642-3.921c0-2.2,1.841-3.881,4.762-3.881c1.46,0,2.54,0.32,3.24,0.68
				l-0.6,1.98c-0.48-0.26-1.421-0.64-2.681-0.64c-1.561,0-2.24,0.84-2.24,1.62c0,1.04,0.779,1.521,2.58,2.221
				c2.341,0.88,3.48,2.061,3.48,4.001c0,2.16-1.64,4.041-5.121,4.041c-1.42,0-2.9-0.4-3.641-0.841L755.299,61.471z"/>
		</g>
		<polygon fill="#FFFFFF" points="706.899,31.849 707.999,35.234 711.558,35.234 708.679,37.327 709.779,40.712 706.899,38.62 
			704.019,40.712 705.119,37.327 702.24,35.234 705.799,35.234 		"/>
		<rect x="636.251" y="26.016" opacity="0" fill="#FFFFFF" width="142" height="49.967"/>
	</g>
	<g id="menurr">
		<g>
			<path fill="#FFFFFF" d="M560.203,58.65c-0.08-1.741-0.18-3.841-0.16-5.662h-0.06c-0.44,1.641-1,3.461-1.6,5.161l-1.96,5.842h-1.9
				l-1.8-5.762c-0.521-1.72-1-3.561-1.36-5.241h-0.04c-0.06,1.761-0.14,3.901-0.24,5.741l-0.3,5.422h-2.301l0.9-13.483h3.241
				l1.76,5.422c0.48,1.58,0.9,3.181,1.24,4.681h0.06c0.36-1.46,0.82-3.121,1.34-4.701l1.86-5.401h3.201l0.78,13.483h-2.4
				L560.203,58.65z"/>
			<path fill="#FFFFFF" d="M572.902,58.17h-5.081v3.961h5.681v2.021h-8.142V50.668h7.842v2.021h-5.381v3.48h5.081V58.17z"/>
			<path fill="#FFFFFF" d="M575.661,64.151V50.668h2.8l3.481,5.781c0.9,1.501,1.68,3.061,2.3,4.521h0.04
				c-0.16-1.801-0.22-3.541-0.22-5.602v-4.701h2.28v13.483h-2.541l-3.521-5.922c-0.86-1.479-1.761-3.141-2.421-4.66l-0.06,0.02
				c0.1,1.74,0.12,3.521,0.12,5.741v4.821H575.661z"/>
			<path fill="#FFFFFF" d="M591.621,50.668v7.862c0,2.641,1.1,3.86,2.761,3.86c1.78,0,2.84-1.22,2.84-3.86v-7.862h2.46v7.702
				c0,4.161-2.14,6.001-5.381,6.001c-3.121,0-5.141-1.74-5.141-5.981v-7.722H591.621z"/>
		</g>
		<polygon fill="#FFFFFF" points="574.24,31.849 575.34,35.234 578.899,35.234 576.019,37.327 577.119,40.712 574.24,38.62 
			571.36,40.712 572.46,37.327 569.58,35.234 573.14,35.234 		"/>
		<rect x="528.251" y="25.902" opacity="0" fill="#FFFFFF" width="93" height="49.967"/>
	</g>
</g>
<g id="logo">
	<g>
		<path fill="#FFFFFF" d="M304.762,56.244c0.005,0.259,0.011,0.518,0.016,0.777c0.242,0.062,0.485,0.124,0.727,0.187
			c2.261-0.058,4.611-0.382,6.835,0.025l1.482-0.018c0.487-0.006,0.995-0.012,1.482-0.018c0.052-0.144,0.104-0.289,0.156-0.433
			l-0.138-0.209c-0.174-0.265-0.721-0.557-1.041-0.716c-2.954,0.045-5.908,0.078-8.861-0.047
			C305.202,55.943,304.982,56.093,304.762,56.244z M308.914,56.263c0.037-0.063,0.123-0.116,0.191-0.117l0.124-0.003
			c0.003,0.131,0.006,0.263,0.008,0.394l-0.109,0.002c-0.059-0.039-0.124-0.066-0.195-0.08l-0.086-0.082L308.914,56.263z"/>
		<path fill="#FFFFFF" d="M312.662,49.2c-0.229,0.063-0.457,0.125-0.686,0.188l0.004,0.167c0.005,0.246,0.555,0.823,0.764,1.04
			c1.765,0.033,3.546,0.138,5.303,0.012c1.949-0.082,3.906-0.019,5.859-0.016c0.233-0.192,0.467-0.383,0.7-0.575
			c-0.003-0.166-0.007-0.331-0.011-0.497c-0.155-0.078-0.31-0.157-0.465-0.236C320.303,49.321,316.49,49.312,312.662,49.2z"/>
		<path fill="#FFFFFF" d="M304.796,43.939c-0.132,0.137-0.145,0.943-0.159,1.196c0.135,0.172,0.27,0.345,0.404,0.517
			c2-0.042,3.999-0.085,5.999-0.127c-0.011-0.525-0.022-1.05-0.033-1.575c-0.354-0.09-0.994-0.259-1.227-0.48l-0.169-0.16
			c-0.022-0.604-0.044-1.207-0.066-1.811c0.504-0.475,1.007-0.95,1.511-1.425c0.213,0.016,0.426,0.033,0.639,0.049
			c0.749,0.932,1.934,2.111,2.157,3.283l0.039,0.207c-0.367,0.127-0.737,0.246-1.11,0.356c0.01,0.479,0.02,0.958,0.031,1.438
			c0.111,0.069,0.222,0.137,0.333,0.206c1.552,0.053,3.109,0.086,4.662,0.042l0,0l1.374-0.039c0.125-0.235,0.251-0.47,0.376-0.705
			c-0.09-0.323-0.18-0.645-0.27-0.968c-0.346-0.11-0.691-0.219-1.036-0.329c-1.537-1.74-2.808-3.712-4.149-5.607
			c-0.004-0.196-0.008-0.392-0.013-0.588c1.166-1.04,2.332-2.08,3.498-3.12c0.257-0.062,0.514-0.124,0.771-0.187
			c0.083-0.164,0.167-0.328,0.25-0.492c-0.006-0.296-0.013-0.591-0.019-0.887c-0.113-0.144-0.225-0.287-0.338-0.431
			c-1.753-0.022-3.507-0.044-5.26-0.065c-0.111,0.14-0.222,0.28-0.333,0.42c0.036,0.416,0.072,0.831,0.107,1.247
			c0.266,0.14,0.532,0.279,0.797,0.419c0.004,0.163,0.007,0.327,0.01,0.49c-1.194,1.147-2.388,2.294-3.582,3.441
			c-0.116,0.002-0.232,0.005-0.348,0.007c-0.06-0.218-0.12-0.437-0.179-0.655c0.013-0.972,0.025-1.945,0.038-2.917
			c0.202-0.17,0.403-0.341,0.605-0.511c0.198-0.004,0.397-0.008,0.596-0.013c0.11-0.138,0.22-0.277,0.33-0.415
			c-0.008-0.392-0.017-0.785-0.025-1.177c-0.1-0.096-0.2-0.191-0.299-0.287c-1.912-0.002-3.823-0.004-5.735-0.006
			c-0.11,0.139-0.22,0.277-0.331,0.416c0.036,0.422,0.072,0.844,0.108,1.267c0.377,0.093,1.008,0.272,1.259,0.51l0.201,0.191
			c0.03,2.778,0.06,5.556,0.09,8.334c-0.098,0.219-0.195,0.437-0.293,0.656C305.738,43.697,304.94,43.789,304.796,43.939z"/>
		<path fill="#FFFFFF" d="M250.08,34.106c0.331,0.097,0.661,0.194,0.992,0.291c0.055,0.203,0.111,0.406,0.166,0.608
			c0.029,2.754,0.058,5.508,0.087,8.263c-0.108,0.136-0.217,0.272-0.325,0.409c-0.338,0.061-0.676,0.123-1.014,0.184l-0.076,0.21
			c-0.108,0.3-0.075,0.855-0.054,1.208c0.111,0.086,0.223,0.173,0.334,0.259c1.851,0.024,3.701,0.048,5.552,0.072
			c0.139-0.207,0.278-0.415,0.417-0.622c0.015-0.324-0.027-0.641-0.125-0.951l-0.104-0.156c-0.348-0.106-0.695-0.212-1.043-0.319
			c-0.115-0.217-0.231-0.433-0.346-0.65c-0.021-0.925-0.042-1.849-0.063-2.774c0.11-0.158,0.221-0.316,0.331-0.474
			c0.259,0.024,0.518,0.048,0.777,0.072c1.328,1.897,2.656,3.793,3.984,5.69c0.159,0.059,0.318,0.118,0.478,0.177l1.802-0.029v0
			l1.802-0.029c0.087-0.171,0.174-0.343,0.261-0.514c-0.006-0.268-0.011-0.537-0.017-0.805c-0.179-0.171-0.358-0.343-0.537-0.514
			c-0.212,0.005-0.424,0.009-0.637,0.014c-0.949-0.826-3.232-2.735-3.261-4.076l-0.004-0.195c0.484-0.227,0.969-0.453,1.453-0.68
			c0.331-0.273,0.661-0.547,0.992-0.82c0.216-0.458,0.432-0.916,0.649-1.374c-0.012-0.53-0.024-1.06-0.036-1.59
			c-0.267-0.443-0.534-0.887-0.801-1.33c-0.351-0.266-0.702-0.533-1.054-0.799c-3.314-1.092-7.138-0.536-10.582-0.487
			c-0.118,0.169-0.236,0.338-0.354,0.506c0.006,0.273,0.012,0.546,0.017,0.819C249.855,33.834,249.967,33.97,250.08,34.106z
			 M254.81,34.692c0.949-0.02,1.899-0.04,2.848-0.06c0.345,0.167,0.689,0.333,1.034,0.5c0.141,0.193,0.283,0.386,0.424,0.579
			c0.007,0.311,0.013,0.623,0.02,0.934c-0.139,0.207-0.277,0.414-0.416,0.621c-0.357,0.171-0.714,0.343-1.071,0.514l-1.314,0.027
			c-0.438,0.009-0.876,0.018-1.314,0.027c-0.155-0.086-0.31-0.172-0.465-0.258c-0.018-0.854-0.036-1.708-0.054-2.562
			C254.605,34.907,254.707,34.799,254.81,34.692z"/>
		<path fill="#FFFFFF" d="M255.537,49.725c-0.021,0.271-0.041,0.542-0.062,0.812c0.123,0.097,0.245,0.195,0.368,0.292
			c2.35,0,4.701-0.01,7.051-0.069v0l2.339-0.059c0.181-0.201,0.362-0.402,0.543-0.603c0.125-0.003,0.251-0.005,0.376-0.008
			c0.265,0.213,0.53,0.427,0.794,0.64c0.302-0.006,0.604-0.013,0.906-0.019c0.083-0.233,0.166-0.465,0.249-0.698
			c-0.13-0.19-0.261-0.38-0.391-0.571C263.677,49.411,259.536,49.163,255.537,49.725z"/>
		<path fill="#FFFFFF" d="M269.428,43.192c0.491,0.43,0.983,0.861,1.474,1.291c0.896,0.459,1.841,0.824,2.814,1.088l1.354-0.017
			c1.074,0.033,2.124-0.122,3.146-0.465c0.505-0.313,1.011-0.625,1.516-0.938c0.393-0.448,0.786-0.895,1.18-1.343
			c0.476-0.935,0.823-1.935,1.029-2.964c-0.014-0.666-0.028-1.333-0.042-1.999c-0.173-0.606-0.346-1.212-0.519-1.819
			c-0.335-0.5-0.67-1.001-1.006-1.501c-1.132-1.231-2.754-1.983-4.39-2.254c-0.72,0.015-1.44,0.031-2.159,0.046
			c-0.623,0.187-1.246,0.374-1.87,0.561c-0.891,0.522-1.727,1.136-2.49,1.831c-1.341,1.961-1.422,4.211-1.08,6.479
			C268.733,41.856,269.08,42.524,269.428,43.192z M272.154,36.395c0.287-0.471,0.574-0.941,0.862-1.412
			c0.416-0.257,0.832-0.513,1.249-0.77c0.482-0.001,0.964-0.002,1.446-0.003c0.354,0.173,0.708,0.345,1.062,0.518
			c0.239,0.244,0.478,0.488,0.717,0.732c0.249,0.52,0.498,1.041,0.747,1.561c0.03,1.226,0.061,2.452,0.091,3.678
			c-0.231,0.531-0.462,1.061-0.693,1.592c-0.272,0.298-0.543,0.596-0.815,0.895c-0.321,0.174-0.643,0.349-0.964,0.523l-0.695,0.009
			v-0.001l-0.695,0.009c-0.616-0.264-1.19-0.627-1.692-1.07c-0.253-0.477-0.505-0.953-0.758-1.43
			c-0.211-0.908-0.331-1.838-0.356-2.769C271.825,37.77,271.989,37.083,272.154,36.395z"/>
		<path fill="#FFFFFF" d="M231.168,50.235c0.004,0.188,0.008,0.376,0.012,0.565c3.255,0.094,6.521,0.079,9.776,0.068v0l2.437-0.007
			c0.349-0.206,0.698-0.412,1.047-0.618c0.22,0.198,0.439,0.396,0.659,0.593c0.675-0.22,1.383-0.336,2.092-0.341
			c0.056,0.086,0.112,0.173,0.168,0.259c0.196-0.004,0.393-0.008,0.589-0.013c0.103-0.107,0.206-0.215,0.309-0.322
			c-0.004-0.184-0.008-0.368-0.012-0.552c-0.107-0.103-0.215-0.206-0.322-0.309c-0.55,0.012-1.099,0.023-1.649,0.035
			c-0.139,0.222-0.278,0.444-0.416,0.666c-0.131,0.003-0.261,0.005-0.392,0.008c-0.265-0.213-0.53-0.427-0.794-0.64
			c-4.361-0.062-8.726-0.007-13.088-0.013C231.445,49.821,231.307,50.028,231.168,50.235z"/>
		<path fill="#FFFFFF" d="M251.513,50.781L251.513,50.781l2.393-0.036c0.146-0.238,0.231-0.498,0.256-0.781l-0.006-0.267
			c-0.171-0.087-0.343-0.174-0.514-0.261c-1.491,0.032-2.982,0.063-4.474,0.095c-0.174,0.195-0.349,0.391-0.523,0.586
			c0.004,0.196,0.008,0.392,0.013,0.588C249.61,50.822,250.543,50.795,251.513,50.781z"/>
		<path fill="#FFFFFF" d="M311.251,50.515c0.084-0.142,0.169-0.283,0.253-0.425c-0.063-0.23-0.126-0.46-0.189-0.69
			c-0.232-0.053-0.465-0.106-0.697-0.159c-0.114,0.164-0.229,0.327-0.343,0.491c-0.018,0.269,0.018,0.531,0.111,0.786l0.096,0.092
			l0.385-0.047v0L311.251,50.515z"/>
		<path fill="#FFFFFF" d="M309.036,50.628c0.085-0.002,0.224-0.076,0.309-0.164l0.154-0.161c-0.006-0.292-0.012-0.584-0.019-0.875
			c-0.144-0.052-0.289-0.104-0.433-0.156c-0.139,0.091-0.279,0.183-0.418,0.274c-0.023,0.238-0.046,0.476-0.07,0.714l0.161,0.186
			C308.808,50.547,308.95,50.629,309.036,50.628L309.036,50.628z"/>
		<path fill="#FFFFFF" d="M306.127,50.637L306.127,50.637l1.286-0.039l0.12-0.2c0.104-0.303,0.14-0.613,0.109-0.929
			c-0.79-0.318-1.633-0.281-2.402,0.096c-0.274-0.09-0.548-0.18-0.822-0.27c-1.46,0.004-2.92,0.008-4.38,0.013
			c-0.056,0.058-0.112,0.116-0.167,0.174C300.3,51.645,304.35,50.692,306.127,50.637z"/>
		<path fill="#FFFFFF" d="M287.69,42.701c0.427,0.492,0.854,0.984,1.282,1.475c0.475,0.3,0.95,0.601,1.425,0.901
			c0.441,0.146,0.882,0.291,1.323,0.437c0.639,0.044,1.436,0.016,2.04,0.158l0,0c0.59,0.139,1.759-0.388,2.367-0.544
			c0.526-0.295,1.052-0.589,1.577-0.884c0.633-0.654,1.266-1.307,1.898-1.961l-0.003-0.147c-0.005-0.228-0.733-0.827-0.96-1.012
			c-0.145,0.003-0.29,0.006-0.434,0.009c-0.56,0.577-1.119,1.153-1.678,1.73c-0.537,0.279-1.074,0.558-1.61,0.837
			c-0.519,0.011-1.039,0.022-1.558,0.033c-0.398-0.166-0.796-0.332-1.194-0.498c-0.322-0.341-0.643-0.682-0.965-1.024
			c-0.228-0.428-0.457-0.855-0.685-1.283c-0.162-0.742-0.324-1.484-0.487-2.226c0.142-0.69,0.284-1.38,0.425-2.07
			c0.247-0.466,0.494-0.932,0.741-1.398c0.527-0.434,1.103-0.81,1.713-1.117c0.468,0.038,0.936,0.077,1.404,0.115
			c0.686,0.366,1.322,0.824,1.886,1.358c0.367,0.587,0.735,1.174,1.102,1.761c0.149,0.076,0.298,0.152,0.448,0.227
			c0.372-0.103,0.743-0.206,1.115-0.308c0.089-0.206,0.177-0.412,0.266-0.618c-0.303-1.069-0.455-3.346-1.253-4.111l-0.211-0.202
			c-0.347,0.007-0.694,0.015-1.041,0.022c-0.196,0.134-0.392,0.269-0.588,0.403c-0.612-0.161-1.224-0.322-1.835-0.483
			c-0.745,0.016-1.49,0.032-2.235,0.047c-1.048,0.242-2.019,0.66-2.91,1.256c-0.524,0.585-1.049,1.17-1.573,1.755
			c-0.41,0.907-0.706,1.865-0.878,2.846c0.057,0.822,0.114,1.645,0.17,2.467C287.079,41.334,287.385,42.017,287.69,42.701z"/>
		<path fill="#FFFFFF" d="M300.578,56.729c0.05,0.123,0.101,0.246,0.151,0.37c0.735,0.065,1.451,0.07,2.199,0.045v0l1.102-0.036
			c0.084-0.14,0.168-0.28,0.252-0.42c-0.128-0.253-0.256-0.506-0.384-0.76c-1.019-0.003-2.038-0.006-3.057-0.009
			C300.753,56.189,300.666,56.459,300.578,56.729z"/>
		<path fill="#FFFFFF" d="M223.323,34.478l0.195,0.155c0.005,2.792,0.01,5.584,0.016,8.376c-0.132,0.212-0.265,0.423-0.397,0.635
			c-0.2,0.004-0.4,0.008-0.601,0.013c-0.138,0.112-0.276,0.225-0.413,0.337c-0.045,0.351-0.091,0.703-0.136,1.054
			c0.085,0.125,0.17,0.25,0.255,0.375c1.343,0.172,2.69,0.192,4.045,0.108c1.712,0.072,3.421-0.065,5.082-0.494
			c0.439-0.246,0.878-0.492,1.316-0.738c0.478-0.51,0.957-1.02,1.435-1.53c0.258-0.558,0.517-1.116,0.776-1.675
			c0.53-2.592,0.285-5.253-1.644-7.247c-0.472-0.336-0.943-0.672-1.415-1.008c-2.945-0.965-6.345-0.511-9.403-0.521
			c-0.151,0.158-0.303,0.316-0.454,0.474c0.035,0.405,0.07,0.81,0.105,1.214C222.457,34.104,223.05,34.261,223.323,34.478z
			 M226.918,34.692c0.715-0.015,1.43-0.03,2.145-0.044c0.461,0.243,0.923,0.485,1.384,0.728c0.489,0.634,0.87,1.349,1.123,2.109
			c0.063,0.58,0.125,1.16,0.188,1.74c-0.141,0.635-0.283,1.269-0.424,1.904c-0.306,0.442-0.719,1.094-1.108,1.406
			c-0.386,0.31-1.235,0.557-1.754,0.732l-0.467,0.002c-0.375,0.001-0.731-0.073-1.067-0.225c-0.071-0.198-0.143-0.396-0.214-0.594
			c-0.007-2.512-0.013-5.023-0.02-7.535C226.775,34.841,226.847,34.767,226.918,34.692z"/>
		<path fill="#FFFFFF" d="M293.833,49.373c-0.103,0.257-0.182,0.522-0.24,0.793c0.105,0.203,0.246,0.376,0.424,0.518l2.027-0.043
			l2.027-0.043c0.065-0.359,0.007-0.8-0.253-1.079l-0.21-0.226C296.35,49.32,295.091,49.346,293.833,49.373z"/>
		<path fill="#FFFFFF" d="M390.993,49.243c-0.145,0.232-0.29,0.463-0.434,0.695c0.061,0.178,0.121,0.356,0.182,0.534
			c0.205,0.047,0.41,0.094,0.614,0.14c0.269-0.147,0.538-0.293,0.808-0.44c0.288,0.144,0.576,0.288,0.863,0.432
			c2.504,0.008,5.01,0,7.514,0.031l0,0c0.374,0.005,0.772-0.029,0.885-0.076l0.206-0.084c-0.006-0.291-0.012-0.582-0.019-0.873
			c-0.141-0.135-0.281-0.269-0.422-0.404C397.792,49.286,394.392,49.269,390.993,49.243z"/>
		<path fill="#FFFFFF" d="M382.843,49.483c-0.085,0.089-0.152,0.256-0.15,0.372c0.002,0.116,0.086,0.319,0.187,0.45l0.182,0.238
			c1.713,0.002,3.452,0.155,5.157,0.112c0.365-0.006,0.719-0.067,1.061-0.184c0.049-0.213,0.097-0.426,0.146-0.639
			c-0.148-0.157-0.296-0.313-0.444-0.47c-0.499-0.041-0.998-0.082-1.497-0.122c-0.383,0.179-0.765,0.358-1.148,0.537
			c-0.287-0.169-0.575-0.339-0.862-0.508c-0.826,0.018-1.652,0.035-2.478,0.053L382.843,49.483z"/>
		<path fill="#FFFFFF" d="M417.174,57.304c0.086-0.089,0.171-0.178,0.257-0.268c-0.034-0.251-0.068-0.502-0.102-0.753
			c-0.263,0.005-0.525,0.011-0.788,0.017c-0.211-0.114-0.423-0.229-0.634-0.343c-3.714-0.013-7.427-0.026-11.141-0.039
			c-0.221,0.106-0.441,0.212-0.662,0.319c0.034,0.327,0.068,0.655,0.102,0.982c0.544,0.014,1.087,0.029,1.631,0.043
			c0.132-0.27,0.265-0.539,0.397-0.809c0.151-0.003,0.302-0.005,0.453-0.008c0.153,0.256,0.306,0.512,0.459,0.768
			c3.018,0.284,6.165,0.262,9.198,0.128v0L417.174,57.304z"/>
		<path fill="#FFFFFF" d="M334.276,50.494l0.265,0.102l1.058-0.014l1.058-0.014c0.103-0.107,0.206-0.215,0.309-0.322
			c-0.004-0.188-0.008-0.376-0.012-0.564c-0.167-0.145-0.333-0.289-0.5-0.434c-0.951,0.045-1.903,0.09-2.854,0.135
			c-0.027,0.16-0.054,0.321-0.082,0.481C333.727,50.124,333.98,50.333,334.276,50.494z"/>
		<path fill="#FFFFFF" d="M392.627,56.604c-0.244,0.007-0.487,0.014-0.731,0.021l-0.081-0.199c-0.045-0.109-0.194-0.256-0.331-0.326
			l-0.25-0.127c-0.252,0.118-0.478,0.275-0.678,0.47c-0.051,0.081-0.092,0.252-0.091,0.381l0.003,0.234
			c0.199,0.075,0.397,0.15,0.596,0.225l1.93-0.033h0l1.93-0.033c0.047-0.079,0.093-0.159,0.14-0.238
			c-0.139-0.313-0.277-0.626-0.416-0.939c-0.459,0.012-0.917,0.023-1.376,0.035C393.058,56.252,392.843,56.428,392.627,56.604z"/>
		<path fill="#FFFFFF" d="M421.411,50.621l0.854-0.056l0.854-0.056c0.021-0.226,0.043-0.453,0.064-0.679
			c-0.175-0.207-0.351-0.415-0.526-0.622c-0.312,0.12-0.625,0.241-0.937,0.361c-0.093-0.055-0.186-0.11-0.279-0.165
			c-0.125,0.109-0.251,0.217-0.376,0.326c0.004,0.191,0.008,0.381,0.012,0.572C421.189,50.408,421.3,50.514,421.411,50.621z"/>
		<path fill="#FFFFFF" d="M425.068,50.646L425.068,50.646l0.762,0.002c0.27-0.147,0.541-0.294,0.811-0.442
			c0.242,0.136,0.485,0.273,0.727,0.409c0.604-0.013,1.208-0.026,1.812-0.038l0.154-0.161c0.085-0.089,0.152-0.261,0.15-0.383
			l-0.005-0.222c-0.157-0.182-0.314-0.364-0.472-0.546c-1.496-0.016-2.992-0.031-4.488-0.047c-0.211,0.087-0.422,0.173-0.633,0.26
			c-0.142,0.257-0.284,0.514-0.427,0.772c0.062,0.095,0.124,0.191,0.186,0.286C424.115,50.626,424.588,50.662,425.068,50.646z"/>
		<path fill="#FFFFFF" d="M407.664,34.371c0.156,0.132,0.312,0.264,0.468,0.396c0.06,2.999,0.172,6.01-0.006,9.006l-0.094,0.098
			c-0.191,0.199-1.01,0.362-1.34,0.442c-0.016,0.481-0.031,0.962-0.047,1.442c0.127,0.101,0.253,0.201,0.38,0.302
			c3.242,0.016,6.485,0.055,9.726,0.031l0,0l1.478-0.011c0.908-1.399,1.321-3.064,1.89-4.653c-0.03-0.136-0.061-0.271-0.091-0.407
			c-0.388-0.147-1.096-0.475-1.461-0.467l-0.136,0.003c-0.369,0.588-0.738,1.176-1.106,1.763c-0.376,0.277-0.751,0.554-1.127,0.831
			c-0.501,0.168-1.002,0.336-1.502,0.504c-0.949,0.077-1.914,0.043-2.848-0.103c-0.071-0.184-0.142-0.367-0.213-0.551
			c0.032-0.964,0.063-1.929,0.095-2.893c0.495-0.036,0.99-0.073,1.485-0.11c0.359,0.486,0.613,1.048,0.743,1.64
			c0.102,0.062,0.203,0.124,0.305,0.187c0.374-0.007,0.749-0.013,1.123-0.02c0.081-0.226,0.161-0.453,0.242-0.679
			c-0.033-1.553-0.066-3.106-0.099-4.66c-0.107-0.103-0.215-0.206-0.322-0.309c-0.359,0.008-0.718,0.015-1.077,0.023
			c-0.103,0.107-0.206,0.215-0.309,0.322c0.004,0.21,0.009,0.42,0.013,0.629c-0.147,0.261-0.294,0.522-0.441,0.784
			c-0.202,0.055-0.403,0.11-0.605,0.165c-0.318-0.045-0.635-0.089-0.953-0.134c-0.078-0.111-0.156-0.222-0.234-0.333
			c0.007-0.858,0.013-1.715,0.02-2.573c0.13-0.086,0.259-0.171,0.389-0.257c0.75-0.017,1.501-0.034,2.251-0.052
			c0.479,0.128,0.957,0.257,1.436,0.385c0.332,0.216,0.664,0.432,0.996,0.648c0.318,0.458,0.637,0.917,0.955,1.375
			c0.168,0.049,0.336,0.099,0.504,0.148c0.349-0.063,0.671-0.195,0.967-0.398l0.226-0.205l-0.005-0.253
			c-0.024-1.115-0.768-2.507-1.161-3.559c-0.161-0.163-0.321-0.325-0.482-0.488c-3.489-0.005-6.979-0.01-10.468-0.015
			c-0.188,0.051-0.376,0.103-0.564,0.154c-0.051,0.442-0.103,0.884-0.154,1.327c0.105,0.121,0.21,0.242,0.314,0.363
			C407.104,34.265,407.384,34.318,407.664,34.371z"/>
		<path fill="#FFFFFF" d="M411.819,50.596c0.187-0.123,0.374-0.247,0.561-0.37c1.898,0.438,3.92,0.496,5.864,0.358v0
			c0.642-0.047,1.242-0.117,1.334-0.154c0.092-0.037,0.2-0.161,0.241-0.275l0.074-0.207c-0.055-0.162-0.11-0.323-0.165-0.485
			c-0.208,0.004-0.416,0.009-0.624,0.013c-0.052,0.089-0.105,0.177-0.157,0.266c-0.211,0.004-0.421,0.009-0.632,0.013
			c-0.097-0.173-0.195-0.346-0.292-0.519c-0.292,0.006-0.583,0.012-0.875,0.019c-0.232,0.191-0.464,0.381-0.696,0.572
			c-0.221-0.199-0.441-0.397-0.662-0.596c-2.326,0.016-4.653,0.031-6.979,0.047c-0.256,0.112-0.512,0.225-0.768,0.337
			c-0.343-0.146-0.686-0.292-1.029-0.438c-1.233,0.238-2.505,0.285-3.75,0.127l-0.232,0.13c-0.128,0.072-0.292,0.249-0.365,0.393
			l-0.133,0.263c0.091,0.162,0.182,0.323,0.273,0.485C405.811,50.614,408.815,50.639,411.819,50.596z"/>
		<path fill="#FFFFFF" d="M388.731,34.349c0.186-0.004,0.372-0.008,0.558-0.012c0.162,0.172,0.324,0.344,0.487,0.515
			c-0.001,2.87-0.003,5.739-0.004,8.609c-0.124,0.2-0.249,0.4-0.373,0.599c-0.316-0.018-0.622,0.033-0.919,0.156l-0.251,0.141
			c0.009,0.424,0.018,0.848,0.027,1.272c0.147,0.117,0.294,0.234,0.441,0.351c2.205,0.021,4.41,0.044,6.614,0.031v-0.001L397.035,46
			c0.665-0.181,1.329-0.362,1.994-0.543c0.375-0.231,0.751-0.462,1.127-0.693c0.331-0.504,0.663-1.007,0.994-1.511
			c0.016-0.677,0.033-1.355,0.049-2.032c-0.19-0.355-0.381-0.709-0.571-1.064c-0.508-0.498-1.097-0.912-1.737-1.222
			c-0.002-0.1-0.004-0.199-0.006-0.299c0.402-0.327,0.803-0.654,1.205-0.98c0.195-0.333,0.39-0.666,0.585-0.999
			c-0.01-0.6-0.02-1.2-0.03-1.8c-0.157-0.314-0.314-0.627-0.471-0.941c-0.333-0.319-0.665-0.638-0.998-0.957
			c-0.689-0.199-1.378-0.398-2.066-0.597c-2.907,0.001-5.814,0.002-8.72,0.003c-0.09,0.178-0.181,0.355-0.271,0.533
			c0.007,0.351,0.015,0.702,0.022,1.053C388.336,34.085,388.533,34.217,388.731,34.349z M397.647,42.299
			c-0.276,0.329-0.553,0.657-0.829,0.986c-0.281,0.124-0.561,0.249-0.842,0.373l-0.826-0.004l0,0
			c-0.557,0.006-1.111-0.024-1.662-0.09c-0.104-0.12-0.209-0.241-0.313-0.361c0.008-1.015,0.016-2.03,0.024-3.045
			c0.13-0.092,0.259-0.185,0.388-0.277c0.841,0.022,1.681,0.045,2.521,0.067c0.367,0.177,0.733,0.355,1.1,0.532
			c0.139,0.255,0.277,0.509,0.416,0.764C397.632,41.596,397.639,41.948,397.647,42.299z M393.535,34.748
			c0.864,0.012,1.728,0.024,2.593,0.036c0.326,0.212,0.652,0.424,0.978,0.636c0.098,0.274,0.195,0.548,0.293,0.822
			c-0.049,0.359-0.172,0.694-0.369,1.004l-0.207,0.251c-0.376,0.172-0.752,0.344-1.128,0.516l-0.942,0.012h0l-0.942,0.012
			c-0.199-0.075-0.397-0.15-0.596-0.225c-0.019-0.912-0.039-1.823-0.058-2.735C393.283,34.967,393.409,34.857,393.535,34.748z"/>
		<path fill="#FFFFFF" d="M355.479,45.859c0.108-0.136,0.216-0.272,0.324-0.408c-0.037-0.466-0.073-0.933-0.11-1.399
			c-0.361-0.084-0.702-0.222-1.022-0.413l-0.162-0.155c0.156-0.494,0.313-0.988,0.469-1.482c0.202-0.139,0.404-0.277,0.606-0.416
			c1.066,0.04,2.133,0.079,3.199,0.119c0.153,0.078,0.306,0.156,0.459,0.233c0.12,0.488,0.24,0.977,0.361,1.465
			c-0.084,0.14-0.168,0.28-0.253,0.42c-0.343,0.104-0.685,0.207-1.028,0.311c-0.017,0.444-0.033,0.888-0.05,1.331
			c0.151,0.12,0.303,0.241,0.454,0.361c1.757,0.024,3.674,0.242,5.408-0.006v0l0.387-0.055l0.1-0.164
			c0.055-0.09,0.096-0.353,0.093-0.583c-0.021-0.383-0.114-0.745-0.277-1.087c-0.117,0.003-0.234,0.005-0.351,0.008
			c-0.235-0.236-0.471-0.472-0.706-0.708c-1.396-3.533-2.694-7.104-4.091-10.636c-0.166-0.085-0.333-0.169-0.499-0.254
			c-0.739-0.036-1.478-0.073-2.217-0.109c-0.207,0.142-0.415,0.285-0.622,0.427c-1.355,3.63-2.513,7.464-4.249,10.918
			c-0.333,0.196-0.666,0.392-0.999,0.587c-0.017,0.444-0.033,0.888-0.05,1.332c0.116,0.09,0.231,0.179,0.347,0.269
			C352.492,45.797,353.986,45.828,355.479,45.859z M356.917,36.713c0.147,0.025,0.294,0.051,0.442,0.076
			c0.311,0.859,0.622,1.718,0.933,2.578c-0.097,0.122-0.194,0.244-0.291,0.366l-0.739,0.007c-0.246,0.002-0.493,0.005-0.74,0.007
			c-0.208-0.078-0.416-0.156-0.624-0.235C356.204,38.568,356.544,37.633,356.917,36.713z"/>
		<path fill="#FFFFFF" d="M335.144,34.455l0.175,0.139c0.058,2.814,0.117,5.627,0.175,8.441c-0.104,0.214-0.207,0.428-0.311,0.643
			c-0.392,0.103-0.784,0.206-1.176,0.309c-0.017,0.473-0.034,0.946-0.051,1.419c0.099,0.095,0.197,0.19,0.296,0.285
			c2.011,0.049,4.023,0.065,6.034,0.042c1.425,0.147,3.195,0.015,4.494-0.674c0.444-0.236,0.913-0.68,1.275-1.064
			c0.165-0.338,0.33-0.676,0.496-1.014c0.041-0.423,0.082-0.847,0.123-1.27c-0.12-0.458-0.24-0.915-0.36-1.373
			c-0.453-0.424-1.961-1.291-1.973-1.749c-0.004-0.176,0.843-0.734,1.05-0.87c0.216-0.387,0.431-0.773,0.647-1.16
			c0.03-0.545,0.061-1.09,0.091-1.634c-0.263-0.476-0.525-0.953-0.788-1.429c-0.42-0.27-0.839-0.54-1.259-0.81
			c-0.506-0.136-1.011-0.273-1.517-0.409c-2.89,0.049-5.781,0.099-8.671,0.148c0.011,0.525,0.022,1.05,0.033,1.575
			C334.288,34.095,334.882,34.247,335.144,34.455z M339.056,34.696c0.813-0.004,1.626-0.008,2.439-0.011
			c0.453,0.182,0.861,0.471,1.182,0.838c0.066,0.317,0.131,0.633,0.197,0.95c-0.13,0.264-0.259,0.529-0.389,0.793
			c-0.329,0.169-0.658,0.339-0.987,0.508l-1.05,0.057v0l-1.05,0.057c-0.199-0.079-0.398-0.159-0.596-0.238
			c-0.019-0.917-0.039-1.834-0.058-2.752C338.847,34.832,338.952,34.764,339.056,34.696z M339.09,39.805
			c0.866-0.013,1.733-0.027,2.599-0.041c0.387,0.204,0.947,0.532,1.183,0.855l0.203,0.277c0.009,0.412,0.018,0.823,0.026,1.235
			c-0.36,0.519-0.845,0.945-1.406,1.233l-1.245,0.026v0l-1.245,0.026c-0.141-0.135-0.281-0.269-0.422-0.404
			c-0.019-0.897-0.038-1.793-0.057-2.69C338.848,40.15,338.969,39.977,339.09,39.805z"/>
		<path fill="#FFFFFF" d="M345.102,49.206c-0.332,0.012-0.664,0.024-0.995,0.036c-0.302,0.111-0.605,0.222-0.907,0.333
			c-0.079,0.243-0.159,0.486-0.239,0.729c0.093,0.089,0.186,0.178,0.279,0.267c3.146-0.015,6.291-0.029,9.437-0.044
			c0.142-0.186,0.638-0.837,0.813-0.842c0.185-0.004,0.776,0.707,0.94,0.9l1.292-0.028l0,0l1.292-0.028
			c0.188-0.364,0.376-0.729,0.564-1.093c-0.054-0.083-0.108-0.167-0.162-0.251c-3.295,0.147-6.596,0.044-9.893-0.012
			c-0.48,0.107-0.944,0.292-1.367,0.543C345.804,49.545,345.453,49.375,345.102,49.206z"/>
		<path fill="#FFFFFF" d="M339.172,49.439c-0.311-0.079-0.621-0.157-0.932-0.236c-0.257,0.062-0.513,0.124-0.77,0.186
			c-0.092,0.181-0.184,0.362-0.276,0.543c0.098,0.203,0.195,0.405,0.293,0.608c0.997,0.012,1.994,0.023,2.99,0.051l0,0
			c0.301,0.009,0.641-0.022,0.754-0.068l0.206-0.084c-0.005-0.251-0.011-0.503-0.016-0.754c-0.225-0.141-0.45-0.281-0.674-0.422
			C340.222,49.321,339.697,49.38,339.172,49.439z"/>
		<path fill="#FFFFFF" d="M366.931,57.285c0.218-0.088,0.435-0.176,0.653-0.264c0.088-0.173,0.176-0.346,0.264-0.52
			c-0.156-0.182-0.312-0.364-0.468-0.546c-0.702-0.035-1.403-0.07-2.105-0.106c-0.163,0.129-0.326,0.258-0.489,0.388
			c0.066,0.313,0.131,0.627,0.197,0.94c0.39,0.108,0.79,0.144,1.201,0.108l0,0.001L366.931,57.285z"/>
		<path fill="#FFFFFF" d="M384.694,56.965l0.203-0.191c0.168-0.001,0.337-0.002,0.505-0.003c0.169,0.122,0.338,0.245,0.506,0.367
			c0.074-0.048,0.147-0.095,0.221-0.143c-0.004-0.203-0.009-0.406-0.013-0.609c-0.111-0.087-0.223-0.174-0.334-0.261
			c-1.223-0.158-2.444-0.119-3.649,0.117c-0.086,0.143-0.172,0.286-0.258,0.43c0.06,0.146,0.119,0.292,0.179,0.438
			c0.161-0.091,0.322-0.181,0.483-0.272l0.26,0.174c0.143,0.096,0.435,0.197,0.649,0.225c0.214,0.028,0.536,0.022,0.716-0.014l0,0
			C384.343,57.186,384.582,57.07,384.694,56.965z"/>
		<path fill="#FFFFFF" d="M358.458,49.317c-0.102,0.111,0.086,0.91,0.134,1.114c1.321,0.093,2.641,0.105,3.967,0.09l2.259-0.025
			c0.039-0.067,0.078-0.133,0.117-0.2c-0.203-0.346-0.407-0.692-0.61-1.038C363.186,49.131,359.159,48.546,358.458,49.317z"/>
		<path fill="#FFFFFF" d="M369.063,44.096l-0.076,0.21c-0.064,0.368-0.083,0.737-0.056,1.108c0.165,0.158,0.331,0.317,0.496,0.475
			c1.875,0.009,3.751,0.017,5.626,0.026c0.156-0.087,0.311-0.175,0.467-0.262c-0.037-0.498-0.073-0.995-0.11-1.493
			c-0.367-0.092-1.002-0.266-1.246-0.497l-0.187-0.178c-0.026-0.847-0.375-2.745,0.04-3.45l0.07-0.118
			c0.295-0.006,0.59-0.013,0.886-0.019c1.326,1.901,2.652,3.802,3.978,5.702c0.188,0.126,0.377,0.252,0.565,0.378l1.915-0.041l0,0
			l1.915-0.041c0.103-0.107,0.206-0.215,0.309-0.322c-0.009-0.403-0.017-0.806-0.026-1.209c-0.107-0.103-0.215-0.206-0.322-0.309
			c-0.232,0.005-0.465,0.01-0.697,0.015c-0.302-0.194-0.604-0.388-0.906-0.582c-0.878-1.112-1.756-2.224-2.634-3.337
			c-0.003-0.157-0.007-0.315-0.01-0.472c0.585-0.28,1.171-0.561,1.756-0.841c0.332-0.331,0.664-0.663,0.996-0.994
			c0.155-0.354,0.311-0.708,0.466-1.061c-0.01-0.573-0.021-1.146-0.031-1.719c-0.295-0.468-0.589-0.936-0.884-1.405
			c-0.381-0.277-0.763-0.555-1.144-0.832c-0.636-0.175-1.271-0.35-1.907-0.525c-2.891,0.005-5.782,0.009-8.674,0.014
			c-0.218,0.056-0.436,0.112-0.654,0.168c-0.017,0.462-0.034,0.923-0.051,1.385c0.106,0.122,0.211,0.244,0.317,0.366
			c0.189-0.004,0.377-0.008,0.566-0.012c0.205,0.137,0.409,0.274,0.614,0.411c0.033,2.915,0.066,5.831,0.099,8.746
			c-0.154,0.177-0.307,0.354-0.461,0.531C369.734,43.974,369.398,44.035,369.063,44.096z M374.038,34.912l0.071-0.121
			c0.996-0.021,1.993-0.042,2.989-0.063c0.506,0.146,0.971,0.423,1.341,0.799c0.102,0.288,0.204,0.577,0.306,0.865
			c-0.145,0.322-0.289,0.645-0.434,0.967c-0.383,0.174-0.767,0.348-1.15,0.522l-1.495,0.032l-1.495,0.032
			c-0.107-0.19-0.213-0.379-0.32-0.569C373.864,36.723,373.713,35.463,374.038,34.912z"/>
		<path fill="#FFFFFF" d="M389.067,56.031c-0.486,0.009-0.972,0.018-1.458,0.027c-0.103,0.107-0.206,0.215-0.309,0.322
			c0.004,0.184,0.008,0.368,0.012,0.552c0.107,0.103,0.215,0.206,0.322,0.309l0.963-0.02c0.316-0.007,0.647-0.014,0.963-0.02
			c0.045-0.126,0.09-0.251,0.135-0.377c-0.122-0.259-0.282-0.491-0.482-0.698L389.067,56.031z"/>
		<path fill="#FFFFFF" d="M270.385,49.628c-0.323-0.044-0.647-0.088-0.97-0.132c-0.184,0.27-0.367,0.54-0.551,0.81
			c0.05,0.123,0.1,0.245,0.15,0.368c0.622,0.049,1.317,0.088,1.92,0.014v0l0.524-0.064c0.118-0.122,0.237-0.245,0.355-0.367
			c-0.063-0.229-0.125-0.458-0.188-0.687c-0.196-0.069-0.392-0.137-0.588-0.206C270.82,49.452,270.603,49.54,270.385,49.628z"/>
		<path fill="#FFFFFF" d="M377.742,50.232c0.186,0.124,0.371,0.249,0.557,0.373l1.681-0.036v0l1.681-0.036
			c0.1-0.231,0.199-0.463,0.299-0.694c-0.255-0.21-0.509-0.419-0.764-0.629c-3.919,0.146-7.85,0.016-11.77-0.023
			c-0.135,0.275-0.27,0.551-0.405,0.826c-0.167,0.004-0.334,0.007-0.501,0.011c-0.184-0.247-0.367-0.493-0.551-0.74
			c-0.516-0.036-1.031-0.072-1.547-0.107c-0.229,0.049-0.457,0.098-0.686,0.146c-0.179,0.318-0.358,0.637-0.537,0.955
			c0.158,0.11,0.316,0.221,0.474,0.331c3.115-0.063,6.231-0.041,9.346-0.041c0.623-0.505,1.28-0.51,1.906-0.009
			C377.198,50.45,377.47,50.341,377.742,50.232z"/>
		<path fill="#FFFFFF" d="M376.812,57.345l2.262-0.084l0,0l2.262-0.084c0.021-0.28,0.042-0.56,0.063-0.839
			c-0.23-0.144-0.46-0.287-0.689-0.431c-0.467,0.065-0.935,0.13-1.402,0.195c-0.717-0.081-1.433-0.162-2.15-0.243
			c-0.302,0.063-0.603,0.127-0.905,0.19c0.005,0.259,0.011,0.518,0.016,0.776C376.451,56.998,376.631,57.171,376.812,57.345z"/>
		<path fill="#FFFFFF" d="M402.326,62.724c-1.752,0.043-3.52,0.132-5.263-0.06c-0.19,0.107-0.379,0.213-0.569,0.32
			c0.034,0.322,0.067,0.644,0.101,0.966c1.205,0.112,2.405,0.111,3.616,0.083v0l2.167-0.051c0.152-0.08,0.303-0.159,0.455-0.239
			c-0.005-0.257-0.011-0.513-0.016-0.77C402.653,62.891,402.489,62.808,402.326,62.724z"/>
		<path fill="#FFFFFF" d="M372.726,56.006c-0.05,0.219-0.1,0.438-0.15,0.656c0.055,0.161,0.11,0.322,0.165,0.483
			c0.15,0.029,0.3,0.059,0.45,0.088l0.725-0.22l0.725-0.22c0.246-0.204,0.491-0.407,0.737-0.611l-0.072-0.069
			C374.899,55.726,373.184,55.938,372.726,56.006z"/>
		<path fill="#FFFFFF" d="M386.34,62.793c-0.109,0.094-0.217,0.188-0.326,0.282c-0.206-0.125-0.411-0.25-0.617-0.374
			c-2.805-0.036-5.609-0.073-8.414-0.109c-0.216,0.167-0.431,0.335-0.646,0.502c-0.026,0.146-0.051,0.293-0.077,0.44
			c0.396,0.165,0.791,0.33,1.187,0.495c2.626,0.002,5.252,0.004,7.878,0.006c0.194-0.233,0.388-0.466,0.582-0.699
			c0.247,0.254,0.494,0.507,0.742,0.761l0.219-0.005h0c0.262-0.045,0.502-0.141,0.721-0.287c-0.003-0.125-0.005-0.25-0.008-0.376
			c0.236-0.159,0.497-0.255,0.785-0.289l0.282-0.006c-0.039-0.109-0.077-0.217-0.116-0.326
			C387.801,62.803,387.071,62.798,386.34,62.793z"/>
		<path fill="#FFFFFF" d="M393.911,62.759c-0.234,0.218-0.494,0.399-0.78,0.542c-0.275-0.13-0.522-0.3-0.74-0.51
			c-0.675-0.028-1.353-0.018-2.027,0.031c-0.314,0.195-0.629,0.389-0.943,0.584l0.004,0.176c0.002,0.097,0.079,0.221,0.17,0.277
			l0.166,0.1c1.558,0.024,3.117,0.037,4.675,0.08l0,0l0.468,0.013l0.205-0.169c0.113-0.093,0.24-0.296,0.283-0.452l0.077-0.284
			c-0.144-0.138-0.287-0.275-0.431-0.413C394.663,62.743,394.287,62.751,393.911,62.759z"/>
		<path fill="#FFFFFF" d="M353.488,62.548c-0.085,0.089-0.171,0.178-0.256,0.267c-0.003,0.335-0.007,0.67-0.01,1.004
			c0.807,0.059,1.796,0.156,2.564,0.046c0.154,0,0.307-0.022,0.459-0.066c0.173-0.168,0.346-0.336,0.519-0.503l0.198,0.119
			c0.304,0.103,0.614,0.139,0.929,0.108c0.208,0.13,0.416,0.26,0.625,0.391c0.898-0.044,1.797-0.088,2.695-0.132
			c0.09-0.151,0.181-0.301,0.271-0.452c-0.091-0.244-0.183-0.487-0.274-0.731C358.634,62.582,356.061,62.565,353.488,62.548z"/>
		<path fill="#FFFFFF" d="M357.748,55.969c-0.185,0.175-0.37,0.35-0.555,0.525c-0.398-0.206-0.795-0.413-1.193-0.619
			c-0.661,0.014-1.321,0.028-1.982,0.042c-0.116,0.167-0.233,0.333-0.349,0.5c-0.142-0.136-0.283-0.271-0.425-0.407
			c-0.31-0.051-0.62-0.103-0.929-0.154c-0.317,0.058-0.635,0.117-0.952,0.175c-0.202,0.257-0.434,0.484-0.696,0.681
			c-0.154,0.005-0.637-0.608-0.767-0.773c-2.497-0.001-4.994-0.002-7.491-0.003c-0.237,0.196-0.474,0.392-0.71,0.588
			c0.004,0.203,0.009,0.406,0.013,0.609c1.354,0.088,2.708,0.069,4.065,0.008c0.149-0.155,0.298-0.311,0.447-0.466
			c0.197,0.177,0.393,0.354,0.59,0.531c0.354,0.04,0.708,0.08,1.062,0.12c0.312-0.202,0.625-0.405,0.937-0.607
			c0.184,0.159,0.367,0.318,0.551,0.478c3.625-0.006,7.258,0.14,10.881,0.013l0,0c1.292-0.045,2.578-0.084,3.87-0.062
			c0.022-0.132,0.044-0.264,0.066-0.396c-0.183-0.284-0.365-0.568-0.548-0.851C361.67,55.93,359.709,55.953,357.748,55.969z"/>
		<path fill="#FFFFFF" d="M372.341,62.532c-0.39,0.375-0.779,0.75-1.169,1.124c-0.193-0.024-0.387-0.049-0.581-0.074
			c-0.162-0.3-0.318-0.604-0.468-0.91c-1.794-0.203-3.61-0.123-5.413-0.082c-0.192,0.238-0.323,0.508-0.392,0.81l0.005,0.217
			c0.147,0.117,0.295,0.234,0.442,0.351c2.48-0.027,4.986,0.091,7.457,0.039v0l0.487-0.01c0.112-0.144,0.7-1.076,0.506-1.262
			C372.931,62.639,372.64,62.571,372.341,62.532z"/>
		<path fill="#FFFFFF" d="M373.912,62.658c-0.061,0.103-0.122,0.207-0.182,0.31c0.169,0.152,0.658,0.601,0.836,0.596l0,0
			c0.257-0.133,0.49-0.299,0.698-0.5c-0.059-0.144-0.117-0.288-0.176-0.432C374.695,62.641,374.304,62.649,373.912,62.658z"/>
		<path fill="#FFFFFF" d="M369.796,57.225L369.796,57.225l0.596-0.013c0.367-0.333,0.763-0.633,1.182-0.896
			c-0.059-0.091-0.117-0.181-0.176-0.272c-0.755-0.045-1.51-0.09-2.265-0.135c-0.122,0.106-0.245,0.212-0.367,0.318
			c0.004,0.202,0.009,0.404,0.013,0.606c0.141,0.135,0.281,0.269,0.422,0.404L369.796,57.225z"/>
		<path fill="#FFFFFF" d="M430.899,49.331c-0.171,0.161-0.342,0.323-0.513,0.484c0.031,0.219,0.061,0.439,0.092,0.659
			c1.12,0.136,2.219,0.116,3.357,0.107v0l2.746-0.022c0.138-0.22,0.275-0.44,0.413-0.66c-0.058-0.17-0.116-0.339-0.173-0.509
			C434.87,49.182,432.866,49.294,430.899,49.331z"/>
		<path fill="#FFFFFF" d="M443.077,49.231c-1.115,0.024-2.229,0.047-3.344,0.071c-0.172,0.179-0.786,0.783-0.781,0.963
			c0.001,0.051,0.106,0.15,0.234,0.221l0.233,0.129l1.977-0.038h0l1.977-0.038c0.103-0.107,0.206-0.215,0.309-0.322
			c-0.004-0.196-0.008-0.393-0.013-0.589C443.472,49.495,443.274,49.363,443.077,49.231z"/>
		<path fill="#FFFFFF" d="M437.494,41.595c-0.19,0.004-0.379,0.008-0.569,0.012c-0.535,0.567-1.07,1.134-1.605,1.701
			c-0.576,0.289-1.152,0.578-1.728,0.866c-0.601,0.012-1.201,0.024-1.802,0.036c-0.449-0.198-0.899-0.396-1.348-0.593
			c-0.327-0.382-0.654-0.765-0.982-1.147c-0.227-0.471-0.453-0.942-0.68-1.413c-0.124-0.749-0.247-1.499-0.371-2.248
			c0.143-0.729,0.305-1.702,0.611-2.332c0.235-0.484,0.727-1.029,1.113-1.449c0.414-0.221,0.828-0.442,1.242-0.663
			c0.419-0.007,0.838-0.014,1.257-0.021c0.786,0.307,1.522,0.736,2.175,1.269c0.512,0.742,1.023,1.484,1.535,2.226
			c0.449-0.069,0.898-0.139,1.347-0.208c0.11-0.095,0.219-0.19,0.329-0.285c-0.225-1.568-0.689-3.088-1.149-4.609
			c-0.15-0.106-0.301-0.213-0.451-0.319c-0.298,0.006-0.596,0.013-0.894,0.019c-0.241,0.149-0.481,0.298-0.722,0.447
			c-0.699-0.173-1.399-0.346-2.098-0.519c-0.716,0.015-1.431,0.03-2.147,0.045c-2.559,0.581-4.509,1.986-5.556,4.437
			c-0.131,0.841-0.261,1.682-0.392,2.523c0.155,0.779,0.311,1.559,0.466,2.338c0.29,0.547,0.58,1.095,0.87,1.642
			c0.507,0.499,1.015,0.998,1.522,1.497c1.023,0.651,2.128,1.098,3.314,1.339l1.002-0.012l0,0c0.996-0.005,1.979-0.168,2.93-0.484
			c1.422-0.653,2.668-1.658,3.685-2.841c-0.004-0.201-0.009-0.402-0.013-0.603C438.09,42.029,437.792,41.812,437.494,41.595z"/>
		<path fill="#FFFFFF" d="M457.129,32.492c-1.67-0.018-3.339-0.036-5.009-0.054c-0.132,0.115-0.265,0.23-0.397,0.344
			c0.009,0.416,0.018,0.833,0.026,1.249l0.167,0.131c0.258,0.202,0.92,0.33,1.286,0.405c0.105,0.187,0.21,0.374,0.316,0.561
			c-0.014,2.23-0.028,4.46-0.042,6.69c-0.177,0.699-0.478,1.366-0.885,1.959c-0.336,0.18-0.672,0.361-1.007,0.541
			c-0.448,0.009-0.895,0.019-1.343,0.029c-0.384-0.214-0.768-0.429-1.152-0.643c-1.342-2.512-0.747-5.793-0.732-8.534l0.129-0.254
			c0.231-0.455,0.798-0.607,1.268-0.547c0.095-0.119,0.189-0.238,0.284-0.357c0.007-0.412,0.014-0.824,0.021-1.236
			c-0.109-0.104-0.217-0.208-0.326-0.312c-2.157-0.019-4.353-0.199-6.49,0.138c0.011,0.525,0.022,1.051,0.033,1.576
			c0.35,0.092,1.131,0.264,1.348,0.476l0.11,0.108c0.056,2.642,0.112,5.283,0.168,7.925c0.299,0.58,0.598,1.16,0.897,1.74
			c0.377,0.315,0.754,0.63,1.131,0.945c0.575,0.251,1.15,0.502,1.724,0.753c0.762,0.16,1.53,0.199,2.302,0.116h0l0.984-0.067
			c0.603-0.204,1.206-0.408,1.809-0.613c0.499-0.521,0.998-1.041,1.497-1.562c1.325-2.987-0.235-6.267,0.808-9.17l0.071-0.197
			c0.474-0.125,0.945-0.265,1.41-0.419c-0.01-0.474-0.02-0.947-0.03-1.421C457.38,32.692,457.255,32.592,457.129,32.492z"/>
		<path fill="#FFFFFF" d="M476.413,41.241c-0.402-0.144-1.097-0.446-1.478-0.439l-0.154,0.003c-0.301,0.504-0.601,1.008-0.902,1.512
			c-0.439,0.376-0.878,0.752-1.318,1.128c-1.352,0.543-2.845,0.644-4.286,0.521c-0.141-0.135-0.281-0.269-0.422-0.404
			c-0.021-0.995-0.042-1.989-0.063-2.984c0.135-0.141,0.269-0.281,0.404-0.422c0.353-0.007,0.705-0.015,1.058-0.022
			c0.26,0.267,0.52,0.533,0.78,0.8c0.005,0.247,0.01,0.494,0.016,0.742c0.141,0.135,0.281,0.269,0.422,0.404
			c0.385-0.008,0.769-0.016,1.154-0.024c0.084-0.166,0.168-0.331,0.252-0.497c-0.019-1.646-0.038-3.292-0.058-4.938
			c-0.163-0.114-0.326-0.228-0.49-0.342c-0.421-0.009-0.843,0.084-1.221,0.268c-0.047,0.34-0.094,0.679-0.141,1.019
			c-0.176,0.198-0.353,0.395-0.529,0.593c-0.417,0.009-0.834,0.018-1.251,0.026c-0.107-0.103-0.215-0.206-0.322-0.309
			c-0.019-0.891-0.038-1.783-0.057-2.674c0.132-0.114,0.263-0.228,0.395-0.342c0.94,0.032,1.88,0.064,2.82,0.096
			c0.43,0.139,0.86,0.278,1.29,0.417c0.68,0.618,1.304,1.298,1.861,2.027c0.485,0.021,0.973-0.076,1.413-0.28
			c0.083-0.163,0.166-0.327,0.249-0.49c-0.422-1.214-0.844-2.427-1.266-3.641c-0.172-0.172-0.345-0.343-0.517-0.515
			c-3.678,0.001-7.355,0.003-11.033,0.004c-0.129,0.112-0.258,0.224-0.387,0.336c0.009,0.416,0.018,0.833,0.026,1.249l0.167,0.132
			c0.225,0.178,0.837,0.259,1.163,0.297c0.089,0.157,0.177,0.315,0.266,0.472c0.057,2.991,0.142,5.988-0.007,8.978
			c-0.203,0.172-0.406,0.343-0.61,0.515c-0.255,0.005-0.51,0.011-0.766,0.016c-0.196,0.489-0.272,1.024-0.223,1.55
			c0.125,0.1,0.251,0.199,0.377,0.299c3.662,0.04,7.652,0.591,11.262,0.037l0,0l0.393-0.06l0.148-0.154
			c0.914-0.95,1.193-3.041,1.686-4.29C476.481,41.651,476.447,41.446,476.413,41.241z"/>
		<path fill="#FFFFFF" d="M396.163,55.995c-0.198,0.215-0.346,0.462-0.444,0.739l0.003,0.161c0.243,0.117,0.487,0.233,0.73,0.35
			c1.55,0.019,3.121-0.031,4.667,0.07c0.469,0.031,1.249-0.221,1.748-0.349c0.083-0.197,0.166-0.394,0.249-0.591
			c-0.153-0.146-0.305-0.293-0.458-0.439C400.493,55.956,398.328,55.976,396.163,55.995z"/>
		<path fill="#FFFFFF" d="M434.354,55.987c-1.228,0.026-2.456,0.052-3.684,0.078c-0.205,0.278-0.342,0.589-0.41,0.933l-0.029,0.325
			c0.902,0.08,1.805,0.108,2.71,0.109l1.394,0.003c0.27-0.186,0.497-0.416,0.68-0.689C434.836,56.457,434.615,56.204,434.354,55.987
			z"/>
		<path fill="#FFFFFF" d="M426.717,56.149l-0.143,0.332c-0.078,0.182-0.194,0.332-0.256,0.334c-0.184-0.223-0.352-0.458-0.503-0.704
			l-0.136-0.08c-2.403-0.033-5.005-0.338-7.369,0.065c0.005,0.236,0.01,0.472,0.015,0.707c0.128,0.167,0.255,0.335,0.383,0.502
			c2,0.076,4.001,0.063,6.002,0.014l0,0l3.021-0.074c0.025-0.205,0.049-0.41,0.074-0.615c-0.156-0.165-0.311-0.329-0.467-0.494
			C427.131,56.141,426.924,56.145,426.717,56.149z"/>
		<path fill="#FFFFFF" d="M426.405,62.871c-0.273,0.139-0.545,0.279-0.818,0.419c-0.356-0.172-0.711-0.344-1.067-0.516
			c-3.727,0.008-7.453-0.004-11.179-0.061c-0.432,0.121-0.864,0.241-1.296,0.362c-0.274-0.107-0.548-0.214-0.822-0.32
			c-0.252,0.11-0.503,0.221-0.755,0.331c-0.27-0.133-0.541-0.265-0.811-0.398c-1.886,0.04-3.771,0.08-5.657,0.12
			c-0.048,0.212-0.097,0.424-0.145,0.636c0.101,0.18,0.203,0.36,0.304,0.541c2.354,0.156,4.735,0.094,7.102,0.138
			c0.236-0.086,0.472-0.172,0.708-0.258c0.264,0.073,0.529,0.145,0.793,0.218c4.426,0.041,8.852,0.08,13.278,0.17l0.383-0.107v0
			c0.211-0.059,0.435-0.162,0.499-0.228l0.116-0.121c-0.034-0.196-0.067-0.393-0.1-0.589
			C426.761,63.095,426.583,62.983,426.405,62.871z"/>
		<path fill="#FFFFFF" d="M428.598,56.169l-0.204,0.083c0.211,0.245,0.453,0.457,0.724,0.635c0.199-0.113,0.371-0.259,0.515-0.436
			c-0.035-0.099-0.069-0.197-0.104-0.296C429.218,56.104,428.908,56.108,428.598,56.169z"/>
		<path fill="#FFFFFF" d="M362.334,62.781l0.006,0.267c0.036,0.281,0.132,0.538,0.288,0.769l0.194-0.004l0,0l0.194-0.004
			c0.136-0.218,0.506-0.759,0.501-0.966c-0.181-0.174-0.392-0.298-0.631-0.372C362.702,62.574,362.518,62.677,362.334,62.781z"/>
		<path fill="#FFFFFF" d="M247.267,62.582c-2.963,0.072-6.037-0.22-8.952,0.279c-0.187-0.065-0.373-0.129-0.56-0.194
			c-5.46-0.008-10.906-0.025-16.366,0.085c-0.111,0.096-0.221,0.192-0.332,0.287c0.004,0.205,0.009,0.41,0.013,0.615
			c0.186,0.095,0.373,0.189,0.559,0.284c3.359-0.03,6.717-0.06,10.076-0.09c0.221-0.152,0.443-0.304,0.664-0.455
			c4.075,1.551,10.228,0.603,14.479,0.513v0l0.888-0.019c0.139-0.145,0.279-0.291,0.418-0.436c-0.031-0.224-0.063-0.447-0.094-0.67
			C247.796,62.715,247.531,62.649,247.267,62.582z"/>
		<path fill="#FFFFFF" d="M344.488,62.471c-0.442,0.201-0.884,0.403-1.325,0.604c-0.238-0.179-0.477-0.359-0.715-0.538
			c-1.346,0.029-2.691,0.057-4.037,0.086c0.004,0.197,0.008,0.394,0.013,0.592c0.392,0.198,0.784,0.395,1.177,0.593
			c2.847-0.015,5.697,0.115,8.541,0.055l0,0l2.299-0.049c0.146-0.138,0.292-0.276,0.438-0.413c0.232,0.1,0.464,0.2,0.696,0.3
			c0.172-0.163,0.344-0.325,0.516-0.488c-0.004-0.195-0.008-0.39-0.012-0.586C349.565,62.37,347.014,62.637,344.488,62.471z"/>
		<path fill="#FFFFFF" d="M272.816,62.546c-0.125,0.108-0.25,0.216-0.375,0.325c-0.017,0.272,0.018,0.538,0.105,0.798
			c0.049,0.047,0.225,0.083,0.391,0.079l0.302-0.006c0.074-0.155,0.147-0.31,0.221-0.465c-0.06-0.217-0.121-0.435-0.181-0.652
			C273.124,62.598,272.97,62.572,272.816,62.546z"/>
		<path fill="#FFFFFF" d="M255.334,62.65c-0.166,0.157-0.332,0.314-0.499,0.471c0.003,0.151,0.006,0.302,0.01,0.453
			c0.131,0.104,0.262,0.208,0.393,0.313c4.076,0.009,8.153,0.024,12.229-0.076v0l3.875-0.095c0.021-0.28,0.042-0.56,0.063-0.839
			c-0.215-0.134-0.43-0.269-0.645-0.403C265.618,62.532,260.476,62.591,255.334,62.65z"/>
		<path fill="#FFFFFF" d="M251.562,56.019c-0.266,0.165-0.533,0.33-0.799,0.495c-0.173-0.15-0.347-0.301-0.52-0.451
			c-3.198,0.019-6.395,0.038-9.593,0.056c-0.194,0.142-0.387,0.284-0.581,0.426c-0.326-0.158-0.652-0.315-0.978-0.473
			c-1.972,0.022-3.943,0.044-5.915,0.066c-0.101,0.065-0.201,0.13-0.302,0.195c0.006,0.292,0.012,0.584,0.019,0.876
			c0.144,0.052,0.287,0.103,0.431,0.155c12.016,0.025,24.036,0.115,36.051-0.002v0l1.847-0.018c0.348-0.305,0.638-0.685,0.843-1.102
			c-0.11-0.065-0.22-0.13-0.331-0.195C265.01,55.995,258.286,56.114,251.562,56.019z"/>
		<path fill="#FFFFFF" d="M253.444,62.588c-1.406,0.029-2.811,0.057-4.217,0.085c-0.103,0.107-0.206,0.215-0.309,0.322
			c0.004,0.191,0.008,0.381,0.012,0.572c0.114,0.091,0.228,0.181,0.342,0.272c0.92,0.049,1.84,0.068,2.761,0.064v0l1.322-0.003
			c0.157-0.12,0.313-0.239,0.47-0.359c-0.005-0.244-0.01-0.488-0.016-0.732C253.688,62.736,253.566,62.662,253.444,62.588z"/>
		<path fill="#FFFFFF" d="M200.615,43.595c-0.18,0.003-0.359,0.006-0.539,0.01c-0.24-0.151-0.481-0.303-0.721-0.454
			c-0.937-1.136-1.853-2.302-2.586-3.57l0.07-0.118c0.366-0.621,1.63-1.003,2.258-1.484c0.212-0.44,0.423-0.881,0.635-1.321
			c-0.012-0.582-0.025-1.164-0.037-1.747c-0.242-0.423-0.484-0.847-0.726-1.27c-0.613-0.459-1.279-0.848-1.98-1.158
			c-2.982-0.325-6.01-0.145-9.004-0.119c-0.143,0.123-0.285,0.247-0.427,0.37c0.008,0.386,0.016,0.773,0.025,1.159
			c0.391,0.158,0.783,0.316,1.174,0.474c0.097,0.173,0.195,0.346,0.292,0.518c0,2.656,0,5.313,0,7.969
			c-0.067,0.194-0.134,0.388-0.201,0.582c-0.343,0.1-0.686,0.201-1.03,0.301c-0.133,0.397-0.176,0.83-0.128,1.248
			c0.086,0.13,0.172,0.259,0.257,0.389c1.559,0.023,3.118,0.047,4.677,0.07c0.288-0.048,0.559-0.143,0.815-0.286l0.161-0.133
			c-0.008-0.373-0.016-0.745-0.024-1.118l-0.168-0.133c-0.284-0.149-0.584-0.249-0.899-0.3c-0.133-0.182-0.266-0.364-0.4-0.546
			c-0.022-1.028-0.044-2.057-0.065-3.085c0.176-0.099,0.353-0.199,0.529-0.298c0.18,0.053,0.36,0.106,0.539,0.159
			c1.301,1.887,2.491,3.868,3.921,5.659c0.744,0.075,1.484,0.083,2.232,0.079l0,0l1.386-0.008c0.103-0.107,0.206-0.215,0.309-0.322
			c-0.008-0.403-0.017-0.806-0.026-1.209C200.83,43.801,200.723,43.698,200.615,43.595z M196.049,37.23
			c-0.344,0.146-0.688,0.292-1.032,0.438l-1.278,0.025v0l-1.278,0.025c-0.114-0.069-0.228-0.138-0.343-0.207
			c0.006-0.913,0.012-1.826,0.017-2.739c1.033-0.047,2.066-0.093,3.099-0.14c0.443,0.253,0.848,0.577,1.19,0.953
			c0.007,0.337,0.014,0.673,0.021,1.01C196.313,36.808,196.181,37.019,196.049,37.23z"/>
		<path fill="#FFFFFF" d="M218.479,50.971l1.653-0.047c0.992-0.008,1.984-0.091,2.963-0.248c0.025-0.208,0.05-0.416,0.075-0.623
			c-0.078-0.075-0.157-0.15-0.235-0.225c-0.264,0.106-0.528,0.212-0.792,0.318c-0.26-0.181-0.519-0.363-0.779-0.544
			c-1.355,0.019-2.709,0.037-4.064,0.056c-0.253,0.332-0.492,0.674-0.718,1.025c-0.207-0.376-0.431-0.745-0.669-1.103
			c-0.728,0.016-1.456,0.031-2.185,0.046c-0.103,0.107-0.206,0.215-0.309,0.322c0.005,0.242,0.01,0.484,0.015,0.726
			c0.167,0.085,0.334,0.17,0.501,0.255c1.457-0.041,2.914-0.082,4.371-0.123C218.365,50.861,218.422,50.916,218.479,50.971z"/>
		<path fill="#FFFFFF" d="M227.656,50.612c0.343,0.105,0.687,0.211,1.03,0.316c0.222-0.107,0.445-0.214,0.667-0.321
			c-0.033-0.23-0.065-0.46-0.098-0.69c-1.651-0.398-3.305-0.327-5-0.351c-0.196,0.079-0.392,0.159-0.588,0.238
			c-0.016,0.272,0.031,0.535,0.143,0.788l0.126,0.19c0.792,0.074,1.587,0.106,2.383,0.09l0.985-0.021
			C227.421,50.77,227.538,50.691,227.656,50.612z"/>
		<path fill="#FFFFFF" d="M211.358,49.568c-1.889,0.013-3.778,0.025-5.668,0.038c-0.14,0.121-0.279,0.242-0.419,0.363
			c0.004,0.198,0.008,0.395,0.013,0.592c0.115,0.091,0.229,0.182,0.343,0.273c1.115,0.057,2.227,0.04,3.342-0.01v0
			c1.116-0.05,2.232-0.108,3.347-0.182c-0.006-0.262-0.011-0.525-0.017-0.787C211.986,49.759,211.672,49.663,211.358,49.568z"/>
		<path fill="#FFFFFF" d="M205.207,43.834c-0.017,0.444-0.033,0.888-0.05,1.331c0.122,0.097,0.245,0.195,0.367,0.292
			c3.003,0.02,6.005,0.049,9.008,0.057v0l0.879,0.002c0.215-0.087,0.431-0.174,0.646-0.262c0.435-1.427,0.922-2.838,1.406-4.25
			c-0.054-0.132-0.108-0.264-0.161-0.395c-0.456-0.18-0.933-0.309-1.418-0.385c-0.277,0.452-0.554,0.905-0.831,1.357
			c-0.413,0.388-0.827,0.776-1.24,1.164c-0.578,0.17-1.157,0.34-1.735,0.509c-0.657-0.028-1.314-0.056-1.971-0.085
			c-0.107-0.102-0.214-0.205-0.321-0.307c-0.048-0.862-0.096-1.724-0.144-2.586c0.095-0.186,0.189-0.373,0.284-0.559
			c0.385-0.008,0.769-0.016,1.154-0.024c0.186,0.227,0.373,0.454,0.559,0.681c0.005,0.233,0.01,0.467,0.015,0.7
			c0.107,0.103,0.215,0.206,0.322,0.309c0.368-0.008,0.736-0.016,1.104-0.023c0.09-0.278,0.181-0.556,0.271-0.833
			c-0.03-1.429-0.061-2.858-0.091-4.287c-0.171-0.087-0.343-0.174-0.514-0.261c-0.258,0.005-0.516,0.011-0.773,0.016l-0.131,0.167
			c-0.202,0.258-0.33,0.92-0.405,1.286c-0.165,0.093-0.329,0.185-0.494,0.278c-0.295,0.006-0.589,0.013-0.884,0.019
			c-0.107-0.103-0.215-0.206-0.322-0.309c-0.039-0.734-0.221-1.811,0.027-2.5l0.075-0.209c0.911-0.019,1.822-0.039,2.733-0.058
			c0.393,0.175,0.786,0.349,1.179,0.524c0.542,0.56,1.047,1.157,1.508,1.785c0.255-0.005,0.509-0.011,0.764-0.016
			c0.231-0.111,0.462-0.223,0.693-0.334c-0.152-1.315-0.512-2.584-1.056-3.798c-0.168-0.14-0.336-0.281-0.504-0.421
			c-3.274-0.176-6.563-0.057-9.84-0.017l-0.091,0.094c-0.158,0.164-0.185,0.999-0.2,1.29c0.103,0.119,0.207,0.239,0.31,0.358
			c0.251,0.045,0.503,0.089,0.754,0.134c0.155,0.148,0.309,0.297,0.464,0.445c0.005,2.808,0.01,5.616,0.015,8.424
			c-0.129,0.135-0.258,0.269-0.387,0.404C205.856,43.638,205.532,43.736,205.207,43.834z"/>
		<path fill="#FFFFFF" d="M222.293,56.941c0.17,0.148,0.341,0.296,0.511,0.444c2.312,0.019,4.626,0.035,6.938-0.028v0
			c0.745-0.02,1.492-0.033,2.232-0.101c-0.006-0.261-0.011-0.521-0.017-0.782c-0.206-0.129-0.412-0.258-0.618-0.387
			c-5.129,0-10.267,0.082-15.394-0.101c-0.187,0.195-0.374,0.391-0.562,0.586c0.036,0.103,0.073,0.207,0.109,0.31l0.309,0.038
			c0.359,0.091,0.686,0.245,0.983,0.46c1.642-0.005,3.284-0.01,4.927-0.014C221.905,57.225,222.099,57.083,222.293,56.941z"/>
		<path fill="#FFFFFF" d="M294.005,57.172L294.005,57.172c1.925-0.149,3.867-0.067,5.797-0.059c0.042-0.118,0.085-0.236,0.127-0.354
			c-0.138-0.317-0.335-0.594-0.59-0.831c-2.062-0.715-5.74,0.023-7.991,0.056c-0.047,0.131-0.095,0.263-0.142,0.394
			c0.123,0.244,0.245,0.487,0.368,0.731C292.374,57.193,293.212,57.234,294.005,57.172z"/>
		<path fill="#FFFFFF" d="M274.554,62.67c-0.05,0.17-0.1,0.34-0.15,0.51c0.093,0.165,0.186,0.33,0.278,0.495
			c3.631,0.574,7.527,0.128,11.189,0.169v-0.001l0.728,0.008c0.3-0.16,0.6-0.321,0.9-0.481c0.157,0.151,0.313,0.302,0.47,0.452
			c0.898-0.02,1.795-0.041,2.693-0.061l0.154-0.103c0.188-0.233,0.32-0.494,0.396-0.781c-0.079-0.122-0.159-0.245-0.238-0.367
			C285.687,62.508,279.767,61.846,274.554,62.67z"/>
		<path fill="#FFFFFF" d="M272.989,55.992c-0.249,0.052-0.479,0.148-0.689,0.288c0.127,0.265,0.384,0.793,0.598,0.928
			c0.081,0.051,0.207,0.073,0.278,0.049v0c0.214-0.214,0.381-0.459,0.501-0.736c-0.168-0.178-0.336-0.355-0.503-0.533
			L272.989,55.992z"/>
		<path fill="#FFFFFF" d="M319.482,63.747c0.181-0.171,0.362-0.341,0.543-0.512l-0.005-0.216c-0.003-0.119-0.077-0.285-0.166-0.37
			l-0.161-0.154c-0.845,0.018-1.689,0.036-2.534,0.054c-0.155,0.179-0.31,0.357-0.464,0.536c-0.127,0.003-0.254,0.005-0.381,0.008
			c-0.265-0.213-0.53-0.427-0.795-0.64c-0.943,0.02-1.886,0.04-2.829,0.06c-0.155,0.179-0.31,0.357-0.464,0.536
			c-0.353,0.007-0.706,0.015-1.059,0.022c-0.214-0.193-0.428-0.385-0.642-0.578c-2.059,0.013-4.118,0.027-6.177,0.04
			c-0.208,0.204-0.416,0.408-0.624,0.612c-0.288-0.207-0.577-0.414-0.865-0.621c-1.408,0.002-2.817,0.004-4.225,0.007
			c-0.11,0.138-0.22,0.277-0.33,0.415c0.061,0.222,0.122,0.444,0.182,0.666c0.208,0.074,0.416,0.148,0.624,0.222
			c3.452-0.017,6.903-0.034,10.355-0.051c0.16-0.185,0.32-0.37,0.481-0.554c0.194-0.004,0.387-0.008,0.581-0.012
			c0.226,0.17,0.453,0.341,0.679,0.511c2.032-0.032,4.058,0.111,6.09,0.068v0L319.482,63.747z"/>
		<path fill="#FFFFFF" d="M339.058,68.354l-0.006-0.282c-0.024-1.142-0.847-2.597-1.278-3.662c-0.187-0.191-0.374-0.383-0.561-0.574
			c-0.06-0.329-0.121-0.658-0.181-0.988c-0.288-0.01-0.562-0.08-0.822-0.208l-0.167-0.131c-0.103-1.235-0.059-2.467,0.155-3.683
			c0.118-0.081,0.235-0.163,0.353-0.244c0.269,0.041,0.539,0.082,0.808,0.123c0.469-0.342,0.938-0.685,1.407-1.027
			c0.011-0.681,0.022-1.361,0.034-2.042c0.128-0.052,0.255-0.104,0.383-0.156c0.122,0.097,0.244,0.194,0.365,0.29
			c0.058,0.26,0.115,0.519,0.173,0.779c0.207-0.004,0.413-0.009,0.62-0.013c1.859-1.384,3.717-2.771,5.597-4.127
			c0.054-0.17,0.108-0.339,0.163-0.509c-0.167-0.119-0.333-0.239-0.5-0.358c-3.944,0.464-7.995,0.151-11.957,0.109
			c-0.19-0.067-0.381-0.134-0.571-0.202c-0.906-2.265-1.652-4.589-2.538-6.862c-0.286-0.226-0.573-0.453-0.859-0.679
			c0.121-0.239,0.243-0.478,0.364-0.716c-0.366-0.996-0.731-1.991-1.097-2.987c-0.111-0.088-0.221-0.176-0.332-0.264
			c-0.154,0.033-0.307,0.066-0.461,0.099c-0.413,1.228-0.807,2.462-1.177,3.703c0.006,0.317,0.012,0.633,0.017,0.95
			c-0.164,0.217-0.327,0.435-0.491,0.652c-0.593,1.921-1.187,3.841-1.78,5.762c-0.136,0.168-0.272,0.336-0.408,0.503
			c-3.345,0.193-6.658,0.225-10.009,0.182c-0.223,0.061-0.446,0.122-0.669,0.183c-0.087,0.268-0.174,0.537-0.262,0.805
			c-0.248-0.182-0.984-0.779-1.215-0.772c-0.054,0.001-0.129,0.09-0.168,0.197l-0.07,0.195c0.098,0.264,0.197,0.528,0.295,0.791
			c0.211,0.048,0.422,0.096,0.633,0.145c0.128-0.052,0.256-0.105,0.384-0.157c0.263,0.212,0.527,0.424,0.79,0.637
			c0.062,0.258,0.125,0.516,0.187,0.774c0.909,0.727,1.915,1.337,2.975,1.803c0.776,0.725,1.627,1.369,2.536,1.918
			c0.284-0.052,0.568-0.105,0.852-0.157c0.005,0.239,0.01,0.477,0.015,0.716c0.411,0.329,0.822,0.658,1.234,0.987
			c-0.073,0.816-0.193,1.628-0.358,2.43c-0.194,0.389-0.388,0.777-0.581,1.166c0.008,0.657,0.015,1.314,0.023,1.971
			c-0.214,0.494-0.557,0.928-0.988,1.252c-0.028,0.552-0.056,1.105-0.085,1.657c-0.24,0.314-0.479,0.627-0.719,0.941
			c-0.251,0.949-0.503,1.898-0.754,2.847l0.082,0.127c0.045,0.07,0.153,0.125,0.239,0.122c2.683-0.076,7.943-5.704,10.121-7.307
			c0.253-0.006,0.505-0.013,0.758-0.019c2.028,1.372,4.022,2.789,6.086,4.109c0.124-0.05,0.247-0.101,0.371-0.151
			c0.126-0.397,0.252-0.795,0.378-1.192l-0.187-0.236c-0.103-0.13-0.191-0.336-0.196-0.459c-0.005-0.123,0.055-0.372,0.133-0.554
			c0.078-0.182,0.213-0.359,0.299-0.395l0.157-0.064c0.119,0.07,0.238,0.14,0.357,0.21c-0.011,0.443-0.022,0.886-0.032,1.329
			c0.098,0.175,0.196,0.349,0.295,0.524c-0.133,0.496-0.266,0.992-0.399,1.488c0.093,0.193,0.186,0.386,0.279,0.58
			c0.953,0.606,1.906,1.213,2.859,1.819l0.244-0.005l0,0c0.134-0.003,0.243-0.03,0.243-0.06
			C340.424,70.815,339.623,69.345,339.058,68.354z M342.298,52.019c0.155,0.134,0.31,0.269,0.465,0.403
			c0.062,0.339,0.123,0.678,0.185,1.018c-0.081,0.227-0.161,0.453-0.242,0.68l-0.184,0.004c-0.101,0.002-0.252-0.074-0.335-0.17
			l-0.15-0.173c-0.029-0.442-0.057-0.883-0.086-1.325C342.067,52.31,342.182,52.165,342.298,52.019z M336.509,53.051
			c0.069-0.137,0.187-0.25,0.262-0.251l0.136-0.003c-0.024,0.191-0.048,0.382-0.072,0.572l-0.139,0.049h0
			c-0.076,0.027-0.178,0.011-0.226-0.035l-0.088-0.084L336.509,53.051z M321.258,56.346l-0.248,0.053v0l-0.248,0.053
			c0.152-0.569,0.252-1.153,0.298-1.741c0.08-0.002,0.161-0.003,0.241-0.005C321.287,55.252,321.273,55.799,321.258,56.346z
			 M325.155,65.499l-0.206,0.215c-0.062-0.152-0.125-0.305-0.187-0.457c0.137-0.143,0.274-0.286,0.411-0.429
			c0.062,0.152,0.124,0.305,0.187,0.457L325.155,65.499z M326.26,54.656c-0.121,0.247-0.242,0.493-0.363,0.74l-0.25,0.005l0,0
			l-0.25,0.005c-0.054-0.158-0.108-0.317-0.162-0.475c0.111-0.347,0.222-0.693,0.332-1.04c0.241-0.124,0.481-0.248,0.722-0.372
			c0.211,0.091,0.422,0.182,0.633,0.272c0.003,0.162,0.007,0.324,0.01,0.487C326.708,54.404,326.484,54.53,326.26,54.656z
			 M331.212,55.218l-0.285,0.047l-0.285,0.047c-0.064-0.235-0.129-0.471-0.193-0.706c0.071-0.318,0.143-0.636,0.214-0.954
			c0.193-0.032,0.387-0.063,0.58-0.095c0.055,0.202,0.11,0.403,0.164,0.605C331.343,54.514,331.278,54.866,331.212,55.218z"/>
		<path fill="#FFFFFF" d="M296.713,62.449c-1.543,0.057-3.086,0.113-4.629,0.17c-0.022,0.236-0.044,0.472-0.067,0.708
			c0.184,0.177,0.369,0.353,0.553,0.53l2.294-0.049l2.294-0.049c0.148-0.24,0.233-0.503,0.255-0.789l-0.006-0.275
			C297.176,62.614,296.945,62.531,296.713,62.449z"/>
		<path fill="#FFFFFF" d="M289.126,57.227c0.211-0.085,0.422-0.171,0.633-0.256c0.049-0.204,0.098-0.409,0.147-0.613
			c-0.135-0.129-0.27-0.258-0.405-0.387c-2.399,0.045-4.926,0.342-7.297-0.056c-0.235,0.095-0.47,0.19-0.705,0.285
			c0.005,0.215,0.009,0.43,0.014,0.645c0.132,0.126,0.264,0.253,0.396,0.379c2.052-0.205,4.024,0.014,6.076,0.007v0L289.126,57.227z
			"/>
		<path fill="#FFFFFF" d="M275.842,50.556c0.248,0.061,0.496,0.122,0.744,0.183c2.904-0.096,5.82-0.319,8.721-0.112
			c0.151-0.184,0.302-0.368,0.453-0.553c0.183,0.164,0.365,0.328,0.548,0.492c1.211,0.07,2.418,0.063,3.632,0.049v0l2.448-0.029
			c0.102-0.128,0.204-0.257,0.306-0.385c-0.033-0.243-0.067-0.485-0.1-0.728c-0.282-0.074-0.564-0.148-0.846-0.222
			c-0.28,0.186-0.56,0.372-0.84,0.557c-0.352-0.17-0.704-0.341-1.056-0.511c-3.481,0.102-6.963,0.114-10.445,0.105
			c-0.176,0.197-0.352,0.394-0.528,0.592c-0.057-0.14-0.114-0.28-0.171-0.419c-0.279-0.085-0.558-0.17-0.836-0.255
			c-1.615,0.064-3.229,0.128-4.844,0.191c-0.117,0.185-0.234,0.37-0.351,0.554c0.101,0.179,0.202,0.359,0.303,0.538
			c0.145-0.003,0.289-0.006,0.434-0.009c0.177-0.167,0.355-0.335,0.532-0.503c0.456-0.06,0.912-0.121,1.368-0.181
			C275.488,50.126,275.665,50.341,275.842,50.556z"/>
		<path fill="#FFFFFF" d="M280.474,57.148c0.087-0.243,0.174-0.486,0.261-0.728c-0.086-0.13-0.173-0.259-0.259-0.389
			c-0.45,0.013-0.901,0.027-1.351,0.04c-0.225,0.234-0.449,0.469-0.674,0.703c0.056,0.138,0.113,0.276,0.169,0.414l0.927-0.02v0
			L280.474,57.148z"/>
		<path fill="#FFFFFF" d="M277.69,57.207c0.131-0.137,0.262-0.273,0.393-0.41c-0.089-0.284-0.237-0.548-0.432-0.772
			c-0.716,0.015-1.432,0.03-2.148,0.046c-0.103,0.107-0.206,0.215-0.309,0.322c0.005,0.238,0.01,0.476,0.015,0.714l0.166,0.063
			c0.091,0.034,0.649,0.057,1.24,0.05v0L277.69,57.207z"/>
	</g>
	<g enable-background="new    ">
		<path fill="#FFFFFF" d="M250.678,72.141c0.241,0.158,0.668,0.325,1.076,0.325c0.594,0,0.872-0.297,0.872-0.668
			c0-0.39-0.231-0.604-0.835-0.826c-0.807-0.287-1.188-0.732-1.188-1.271c0-0.724,0.585-1.317,1.55-1.317
			c0.454,0,0.854,0.13,1.104,0.278l-0.204,0.594c-0.176-0.111-0.501-0.26-0.918-0.26c-0.482,0-0.752,0.278-0.752,0.612
			c0,0.371,0.27,0.538,0.854,0.761c0.779,0.297,1.179,0.687,1.179,1.354c0,0.788-0.612,1.345-1.68,1.345
			c-0.491,0-0.946-0.12-1.262-0.306L250.678,72.141z"/>
		<path fill="#FFFFFF" d="M255.381,69.701c0-0.464-0.009-0.845-0.037-1.216h0.715l0.037,0.724h0.027
			c0.251-0.427,0.668-0.825,1.41-0.825c0.612,0,1.076,0.371,1.271,0.899h0.019c0.139-0.25,0.315-0.445,0.501-0.584
			c0.269-0.204,0.565-0.315,0.992-0.315c0.594,0,1.476,0.39,1.476,1.948v2.644h-0.798v-2.542c0-0.862-0.315-1.382-0.975-1.382
			c-0.464,0-0.825,0.343-0.965,0.742c-0.037,0.111-0.064,0.26-0.064,0.408v2.773h-0.798v-2.69c0-0.714-0.315-1.233-0.938-1.233
			c-0.51,0-0.881,0.408-1.011,0.816c-0.047,0.12-0.065,0.26-0.065,0.398v2.709h-0.798V69.701z"/>
		<path fill="#FFFFFF" d="M268.1,70.693c0,1.661-1.15,2.385-2.236,2.385c-1.215,0-2.152-0.891-2.152-2.311
			c0-1.503,0.983-2.384,2.227-2.384C267.228,68.384,268.1,69.32,268.1,70.693z M264.537,70.74c0,0.983,0.565,1.726,1.363,1.726
			c0.779,0,1.364-0.733,1.364-1.744c0-0.761-0.381-1.726-1.346-1.726S264.537,69.887,264.537,70.74z"/>
		<path fill="#FFFFFF" d="M270.855,70.545h0.019c0.111-0.157,0.269-0.353,0.398-0.51l1.317-1.55h0.983l-1.734,1.847l1.976,2.644
			h-0.992l-1.55-2.152l-0.417,0.464v1.688h-0.808v-6.587h0.808V70.545z"/>
		<path fill="#FFFFFF" d="M275.771,70.879c0.019,1.104,0.724,1.559,1.54,1.559c0.585,0,0.938-0.102,1.243-0.231l0.14,0.584
			c-0.288,0.13-0.779,0.278-1.494,0.278c-1.382,0-2.208-0.909-2.208-2.264s0.798-2.421,2.106-2.421c1.466,0,1.855,1.289,1.855,2.115
			c0,0.167-0.019,0.297-0.028,0.38H275.771z M278.164,70.295c0.01-0.52-0.213-1.327-1.132-1.327c-0.825,0-1.188,0.761-1.252,1.327
			H278.164z"/>
		<path fill="#FFFFFF" d="M280.882,66.389h0.816v2.802h0.019c0.13-0.231,0.334-0.436,0.584-0.575
			c0.241-0.139,0.529-0.231,0.835-0.231c0.604,0,1.568,0.371,1.568,1.92v2.672h-0.816v-2.579c0-0.724-0.27-1.336-1.039-1.336
			c-0.529,0-0.946,0.371-1.095,0.816c-0.047,0.111-0.056,0.232-0.056,0.39v2.709h-0.816V66.389z"/>
		<path fill="#FFFFFF" d="M291.012,70.693c0,1.661-1.15,2.385-2.235,2.385c-1.216,0-2.152-0.891-2.152-2.311
			c0-1.503,0.983-2.384,2.227-2.384C290.14,68.384,291.012,69.32,291.012,70.693z M287.45,70.74c0,0.983,0.566,1.726,1.364,1.726
			c0.779,0,1.363-0.733,1.363-1.744c0-0.761-0.38-1.726-1.345-1.726S287.45,69.887,287.45,70.74z"/>
		<path fill="#FFFFFF" d="M296.717,71.751c0,0.464,0.01,0.872,0.037,1.225h-0.724l-0.046-0.732h-0.019
			c-0.214,0.361-0.687,0.835-1.484,0.835c-0.705,0-1.55-0.39-1.55-1.967v-2.626h0.816v2.486c0,0.854,0.26,1.429,1.002,1.429
			c0.548,0,0.928-0.38,1.076-0.742c0.047-0.12,0.074-0.269,0.074-0.417v-2.756h0.816V71.751z"/>
		<path fill="#FFFFFF" d="M298.878,72.141c0.241,0.158,0.668,0.325,1.076,0.325c0.594,0,0.872-0.297,0.872-0.668
			c0-0.39-0.232-0.604-0.835-0.826c-0.808-0.287-1.188-0.732-1.188-1.271c0-0.724,0.584-1.317,1.549-1.317
			c0.455,0,0.854,0.13,1.104,0.278l-0.204,0.594c-0.177-0.111-0.501-0.26-0.919-0.26c-0.482,0-0.751,0.278-0.751,0.612
			c0,0.371,0.269,0.538,0.854,0.761c0.779,0.297,1.178,0.687,1.178,1.354c0,0.788-0.612,1.345-1.679,1.345
			c-0.492,0-0.946-0.12-1.262-0.306L298.878,72.141z"/>
		<path fill="#FFFFFF" d="M304.036,70.879c0.019,1.104,0.724,1.559,1.54,1.559c0.585,0,0.938-0.102,1.243-0.231l0.14,0.584
			c-0.288,0.13-0.779,0.278-1.494,0.278c-1.382,0-2.208-0.909-2.208-2.264s0.798-2.421,2.106-2.421c1.466,0,1.855,1.289,1.855,2.115
			c0,0.167-0.019,0.297-0.028,0.38H304.036z M306.429,70.295c0.01-0.52-0.213-1.327-1.132-1.327c-0.825,0-1.188,0.761-1.252,1.327
			H306.429z"/>
	</g>
	<g enable-background="new    ">
		<path fill="#FFFFFF" d="M351.085,72.41c-0.213,0.111-0.687,0.26-1.289,0.26c-1.354,0-2.236-0.918-2.236-2.291
			c0-1.383,0.946-2.385,2.412-2.385c0.482,0,0.909,0.121,1.132,0.232l-0.186,0.631c-0.194-0.111-0.501-0.214-0.946-0.214
			c-1.029,0-1.586,0.761-1.586,1.698c0,1.039,0.668,1.679,1.559,1.679c0.464,0,0.77-0.12,1.002-0.223L351.085,72.41z"/>
		<path fill="#FFFFFF" d="M353.859,69.488c0-0.529-0.009-0.983-0.037-1.401h0.715l0.027,0.882h0.037
			c0.204-0.604,0.696-0.983,1.243-0.983c0.093,0,0.158,0.009,0.232,0.027v0.771c-0.084-0.019-0.167-0.028-0.278-0.028
			c-0.575,0-0.983,0.437-1.095,1.049c-0.019,0.111-0.037,0.241-0.037,0.38v2.394h-0.808V69.488z"/>
		<path fill="#FFFFFF" d="M361.151,72.577l-0.065-0.565h-0.027c-0.251,0.353-0.733,0.668-1.373,0.668
			c-0.909,0-1.373-0.641-1.373-1.29c0-1.085,0.965-1.679,2.699-1.67v-0.093c0-0.371-0.102-1.039-1.021-1.039
			c-0.417,0-0.854,0.13-1.169,0.334l-0.186-0.538c0.371-0.241,0.909-0.398,1.476-0.398c1.373,0,1.707,0.937,1.707,1.837v1.679
			c0,0.39,0.019,0.771,0.074,1.076H361.151z M361.03,70.286c-0.891-0.019-1.901,0.139-1.901,1.011c0,0.529,0.353,0.779,0.77,0.779
			c0.585,0,0.956-0.371,1.086-0.751c0.027-0.084,0.046-0.177,0.046-0.26V70.286z"/>
		<path fill="#FFFFFF" d="M365.036,72.577v-3.868h-0.631v-0.622h0.631v-0.213c0-0.631,0.14-1.206,0.52-1.568
			c0.307-0.297,0.715-0.417,1.095-0.417c0.288,0,0.538,0.064,0.696,0.13l-0.111,0.631c-0.121-0.056-0.288-0.103-0.52-0.103
			c-0.696,0-0.872,0.612-0.872,1.299v0.241h1.085v0.622h-1.085v3.868H365.036z"/>
		<path fill="#FFFFFF" d="M370.566,66.798v1.289h1.169v0.622h-1.169v2.421c0,0.557,0.157,0.872,0.612,0.872
			c0.213,0,0.371-0.027,0.473-0.056l0.037,0.612c-0.157,0.065-0.408,0.111-0.724,0.111c-0.38,0-0.687-0.12-0.881-0.343
			c-0.232-0.241-0.315-0.641-0.315-1.169v-2.449h-0.696v-0.622h0.696v-1.076L370.566,66.798z"/>
		<path fill="#FFFFFF" d="M378.218,72.577c0.019-0.306,0.037-0.761,0.037-1.159V65.99h0.808v2.82h0.019
			c0.287-0.501,0.807-0.825,1.53-0.825c1.113,0,1.902,0.928,1.893,2.291c0,1.605-1.011,2.403-2.013,2.403
			c-0.649,0-1.169-0.251-1.503-0.845h-0.028l-0.037,0.742H378.218z M379.063,70.777c0,0.103,0.019,0.204,0.037,0.297
			c0.157,0.566,0.631,0.956,1.225,0.956c0.854,0,1.363-0.696,1.363-1.726c0-0.9-0.464-1.67-1.336-1.67
			c-0.557,0-1.076,0.38-1.243,1.002c-0.019,0.093-0.046,0.204-0.046,0.334V70.777z"/>
		<path fill="#FFFFFF" d="M385.806,70.481c0.019,1.104,0.724,1.559,1.54,1.559c0.585,0,0.938-0.102,1.243-0.231l0.14,0.584
			c-0.288,0.13-0.779,0.278-1.494,0.278c-1.382,0-2.208-0.909-2.208-2.264s0.798-2.421,2.106-2.421c1.466,0,1.855,1.289,1.855,2.115
			c0,0.167-0.019,0.297-0.028,0.38H385.806z M388.2,69.897c0.01-0.52-0.213-1.327-1.132-1.327c-0.825,0-1.188,0.761-1.252,1.327
			H388.2z"/>
		<path fill="#FFFFFF" d="M392.272,70.481c0.019,1.104,0.724,1.559,1.54,1.559c0.585,0,0.938-0.102,1.243-0.231l0.14,0.584
			c-0.288,0.13-0.779,0.278-1.494,0.278c-1.382,0-2.208-0.909-2.208-2.264s0.798-2.421,2.106-2.421c1.466,0,1.855,1.289,1.855,2.115
			c0,0.167-0.019,0.297-0.028,0.38H392.272z M394.665,69.897c0.01-0.52-0.213-1.327-1.132-1.327c-0.825,0-1.188,0.761-1.252,1.327
			H394.665z"/>
		<path fill="#FFFFFF" d="M398.283,69.488c0-0.529-0.009-0.983-0.037-1.401h0.715l0.027,0.882h0.037
			c0.204-0.604,0.696-0.983,1.243-0.983c0.093,0,0.158,0.009,0.232,0.027v0.771c-0.084-0.019-0.167-0.028-0.278-0.028
			c-0.575,0-0.983,0.437-1.095,1.049c-0.019,0.111-0.037,0.241-0.037,0.38v2.394h-0.808V69.488z"/>
	</g>
	<g>
	</g>
	<g>
	</g>
	<g>
	</g>
	<g>
	</g>
	<g>
	</g>
	<g>
	</g>
</g>
</svg>
