<?xml version="1.0" encoding="utf-8"?>
<!-- Generator: Adobe Illustrator 17.0.0, SVG Export Plug-In . SVG Version: 6.00 Build 0)  -->
<!DOCTYPE svg PUBLIC "-//W3C//DTD SVG 1.1//EN" "http://www.w3.org/Graphics/SVG/1.1/DTD/svg11.dtd">
<svg version="1.1" id="Layer_1" xmlns="http://www.w3.org/2000/svg" xmlns:xlink="http://www.w3.org/1999/xlink" x="0px" y="0px"
	 width="612px" height="792px" viewBox="0 0 612 792" enable-background="new 0 0 612 792" xml:space="preserve">
<g>
	<g>
		<circle fill="#4BBD97" cx="305.495" cy="396.637" r="30.112"/>
	</g>
	<g>
		<g>
			<path fill="#377280" d="M278.946,382.424l2.673,0.126v-2.384h-1.328C279.813,380.898,279.361,381.649,278.946,382.424z"/>
			<polygon fill="#377280" points="285.517,382.546 296.687,382.641 296.687,380.166 285.517,380.166 			"/>
			<path fill="#377280" d="M317.978,380.166h-13.064v2.475h11.424v42.087c0.89-0.344,1.758-0.727,2.604-1.15v-42.45
				C318.942,380.599,318.511,380.166,317.978,380.166z"/>
		</g>
		<g>
			<polygon fill="#2A646E" points="283.524,382.641 285.517,382.546 285.517,380.166 281.62,380.166 281.62,382.55 			"/>
		</g>
		<g>
			<path fill="#E7E7D6" d="M281.69,382.641h-0.07v32.336c0.023,0.03,0.046,0.059,0.07,0.089V382.641z"/>
		</g>
		<g>
			<polygon fill="#E7E7D6" points="302.694,409.395 301.606,407.19 300.508,407.225 299.201,409.507 			"/>
		</g>
		<g>
			<polygon fill="#E7E7D6" points="296.72,413.841 304.758,413.585 303.73,411.499 297.956,411.683 			"/>
		</g>
		<g>
			<path fill="#E7E7D6" d="M278.946,382.424c-0.039,0.072-0.074,0.145-0.111,0.217c-0.887,1.684-1.619,3.461-2.176,5.315
				l-0.551,2.12c-0.163,0.733-0.302,1.475-0.41,2.227l-0.226,2.131c-0.051,0.698-0.085,1.402-0.087,2.114l0.075,2.14
				c0.051,0.757,0.127,1.507,0.233,2.247l0.389,2.151c0.172,0.785,0.371,1.56,0.602,2.321l0.754,2.161
				c0.301,0.773,0.628,1.532,0.99,2.271l1.178,2.175c0.613,1.03,1.286,2.018,2.013,2.963v-32.336v-0.091L278.946,382.424z"/>
			<path fill="#E7E7D6" d="M304.914,382.523l-8.227,0.02h-11.169v36.616c0.222,0.197,1.819,1.496,1.819,1.496
				c5.049,3.822,11.337,6.094,18.158,6.094c3.337,0,6.543-0.551,9.542-1.553c0.438-0.147,0.872-0.302,1.301-0.468v-42.205H304.914z"
				/>
			<path fill="#E7E7D6" d="M283.524,382.641l-1.905-0.091v0.091h0.07v32.425c0.528,0.682,1.083,1.342,1.667,1.975v-33.326h0.168
				h0.254v33.769c0.536,0.558,1.09,1.098,1.667,1.613c0.023,0.021,0.048,0.041,0.072,0.062v-36.518v-0.095L283.524,382.641z"/>
		</g>
		<path fill="#DDDDD9" d="M283.524,383.715h-0.168v33.326c0.055,0.06,0.112,0.117,0.168,0.176c0.085,0.09,0.169,0.178,0.254,0.266
			v-33.769H283.524z"/>
		<g>
			<path fill="#BABABA" d="M281.045,389.165c0-0.591-0.461-1.084-1.028-1.102l-3.358-0.107c-0.209,0.696-0.392,1.403-0.551,2.12
				l3.909,0.124C280.584,390.219,281.045,389.756,281.045,389.165z"/>
		</g>
		<g>
			<path fill="#BABABA" d="M281.045,393.543c0-0.591-0.461-1.083-1.028-1.101l-4.319-0.138c-0.101,0.703-0.175,1.414-0.226,2.131
				l4.545,0.145C280.584,394.598,281.045,394.133,281.045,393.543z"/>
		</g>
		<g>
			<path fill="#BABABA" d="M281.045,397.798c0-0.591-0.461-1.084-1.028-1.101l-4.632-0.149c0,0.031-0.002,0.059-0.002,0.089
				c0,0.691,0.032,1.372,0.077,2.051l4.557,0.146C280.584,398.853,281.045,398.388,281.045,397.798z"/>
		</g>
		<g>
			<path fill="#BABABA" d="M281.045,402.174c0-0.59-0.461-1.082-1.028-1.1l-4.324-0.138c0.104,0.726,0.235,1.442,0.389,2.151
				l3.935,0.125C280.584,403.23,281.045,402.766,281.045,402.174z"/>
		</g>
		<g>
			<path fill="#BABABA" d="M281.045,406.615c0-0.591-0.461-1.083-1.028-1.101l-3.333-0.107c0.223,0.734,0.477,1.452,0.754,2.161
				l2.579,0.083C280.584,407.669,281.045,407.204,281.045,406.615z"/>
		</g>
		<g>
			<path fill="#BABABA" d="M281.045,410.991c0-0.589-0.461-1.083-1.028-1.101l-1.589-0.051c0.363,0.744,0.757,1.468,1.178,2.175
				l0.41,0.013C280.584,412.045,281.045,411.582,281.045,410.991z"/>
		</g>
		<g>
			<path fill="#BABABA" d="M287.205,388.063c-0.567,0.019-1.026,0.512-1.026,1.102s0.459,1.054,1.026,1.035l9.481-0.303v-2.138
				L287.205,388.063z"/>
		</g>
		<g>
			<path fill="#BABABA" d="M311.534,389.424c0.567-0.02,1.027-0.512,1.027-1.102c0-0.592-0.46-1.055-1.027-1.036l-6.62,0.212v2.138
				L311.534,389.424z"/>
		</g>
		<g>
			<path fill="#BABABA" d="M311.534,393.802c0.567-0.019,1.027-0.512,1.027-1.102c0-0.591-0.46-1.054-1.027-1.035l-6.62,0.212v2.138
				L311.534,393.802z"/>
		</g>
		<g>
			<path fill="#BABABA" d="M287.205,392.441c-0.567,0.019-1.026,0.511-1.026,1.101c0,0.591,0.459,1.055,1.026,1.036l9.481-0.303
				v-2.138L287.205,392.441z"/>
		</g>
		<g>
			<path fill="#BABABA" d="M287.205,396.696c-0.567,0.018-1.026,0.511-1.026,1.101c0,0.591,0.459,1.055,1.026,1.036l9.481-0.304
				v-2.138L287.205,396.696z"/>
		</g>
		<g>
			<path fill="#BABABA" d="M311.534,398.056c0.567-0.019,1.027-0.511,1.027-1.101c0-0.591-0.46-1.055-1.027-1.035l-6.62,0.211v2.138
				L311.534,398.056z"/>
		</g>
		<g>
			<path fill="#BABABA" d="M311.534,402.434c0.567-0.019,1.027-0.513,1.027-1.103s-0.46-1.053-1.027-1.034l-6.62,0.212v2.138
				L311.534,402.434z"/>
		</g>
		<g>
			<path fill="#BABABA" d="M287.205,401.074c-0.567,0.019-1.026,0.511-1.026,1.1c0,0.592,0.459,1.056,1.026,1.037l9.481-0.303
				v-2.138L287.205,401.074z"/>
		</g>
		<g>
			<path fill="#BABABA" d="M311.534,406.873c0.567-0.019,1.027-0.513,1.027-1.101c0-0.591-0.46-1.054-1.027-1.035l-6.62,0.212v2.136
				L311.534,406.873z"/>
		</g>
		<g>
			<path fill="#BABABA" d="M287.205,405.513c-0.567,0.019-1.026,0.511-1.026,1.101c0,0.59,0.459,1.054,1.026,1.035l9.481-0.304
				v-2.136L287.205,405.513z"/>
		</g>
		<g>
			<polygon fill="#BABABA" points="301.108,406.177 300.508,407.225 301.606,407.19 			"/>
		</g>
		<g>
			<path fill="#BABABA" d="M311.534,411.25c0.567-0.019,1.027-0.511,1.027-1.101c0-0.59-0.46-1.054-1.027-1.035l-6.62,0.212v2.137
				L311.534,411.25z"/>
		</g>
		<g>
			<path fill="#BABABA" d="M287.205,409.89c-0.567,0.019-1.026,0.513-1.026,1.101c0,0.591,0.459,1.054,1.026,1.035l9.481-0.303
				v-2.137L287.205,409.89z"/>
		</g>
		<g>
			<polygon fill="#BABABA" points="297.956,411.683 303.73,411.499 302.694,409.395 299.201,409.507 			"/>
		</g>
		<g>
			<path fill="#BABABA" d="M304.758,413.585l-8.038,0.256l-0.033,0.059v-0.058l-9.481,0.304c-0.567,0.018-1.026,0.511-1.026,1.1
				c0,0.591,0.459,1.055,1.026,1.036l24.329-0.777c0.567-0.019,1.027-0.513,1.027-1.102c0-0.59-0.46-1.054-1.027-1.034l-6.62,0.211
				v0.321L304.758,413.585z"/>
		</g>
		<g>
			<path fill="#BABABA" d="M311.534,419.882c0.567-0.019,1.027-0.511,1.027-1.102c0-0.589-0.46-1.053-1.027-1.034l-24.329,0.777
				c-0.567,0.019-1.026,0.513-1.026,1.101c0,0.041,0.007,0.079,0.011,0.119c0.375,0.313,0.757,0.617,1.146,0.913L311.534,419.882z"
				/>
		</g>
		<g>
			<rect x="296.687" y="380.148" fill="#BC5638" width="8.227" height="0.019"/>
		</g>
		<polygon fill="#BC5638" points="296.687,380.166 296.687,413.842 296.72,413.841 301.108,406.177 304.758,413.585 
			304.914,413.579 304.914,380.166 		"/>
		<g>
			<polygon fill="#BC5638" points="296.72,413.841 296.687,413.842 296.687,413.901 			"/>
		</g>
		<g>
			<polygon fill="#BC5638" points="304.914,413.901 304.914,413.579 304.758,413.585 			"/>
		</g>
	</g>
</g>
<g>
</g>
<g>
</g>
<g>
</g>
<g>
</g>
<g>
</g>
<g>
</g>
</svg>
