<?xml version="1.0" encoding="utf-8"?>
<!-- Generator: Adobe Illustrator 17.0.0, SVG Export Plug-In . SVG Version: 6.00 Build 0)  -->
<!DOCTYPE svg PUBLIC "-//W3C//DTD SVG 1.1//EN" "http://www.w3.org/Graphics/SVG/1.1/DTD/svg11.dtd">
<svg version="1.1" id="Layer_1" xmlns="http://www.w3.org/2000/svg" xmlns:xlink="http://www.w3.org/1999/xlink" x="0px" y="0px"
	 width="62.277px" height="62.277px" viewBox="0 0 62.277 62.277" enable-background="new 0 0 62.277 62.277" xml:space="preserve">
<g>
	<g>
		<g>
			<circle fill="#42BDA4" cx="31.138" cy="31.138" r="31.138"/>
		</g>
	</g>
	<g>
		<circle fill="#E8484A" cx="31.329" cy="31.119" r="23.971"/>
		<circle fill="#F7A2A4" cx="31.329" cy="31.119" r="20.71"/>
		<ellipse fill="#E9E9E9" cx="31.329" cy="31.119" rx="19.048" ry="18.608"/>
		<ellipse fill="#E9E9E9" cx="31.329" cy="32.381" rx="19.048" ry="18.608"/>
		<g>
			<circle fill="#636564" cx="31.475" cy="30.951" r="3.181"/>
			<path fill="#636564" d="M31.782,31.697c-0.226,0.226-0.693,0.125-1.043-0.225l0,0c-0.351-0.351-0.451-0.818-0.225-1.043
				l7.386-7.388c0.226-0.226,0.693-0.125,1.044,0.226l0,0c0.351,0.35,0.451,0.817,0.225,1.043L31.782,31.697z"/>
			<path fill="#636564" d="M30.739,31.365c-0.259-0.258-0.259-0.678,0-0.937l0,0c0.258-0.258,0.678-0.259,0.937,0L42.388,41.14
				c0.259,0.259,0.259,0.678,0,0.938l0,0c-0.257,0.258-0.678,0.258-0.937,0L30.739,31.365z"/>
		</g>
		<g>
			<path fill="none" d="M31.329,13.773c-9.407,0-17.215,6.663-18.764,15.419h37.528C48.543,20.436,40.735,13.773,31.329,13.773z"/>
			<path fill="#DDDFDF" d="M31.343,14.504c15.198,0.127,18.92,14.255,18.92,14.255c-1.417-9.175-9.362-16.249-18.934-16.249
				c-9.572,0-17.489,7.074-18.905,16.249C12.424,28.76,16.144,14.378,31.343,14.504z"/>
		</g>
	</g>
</g>
<g>
</g>
<g>
</g>
<g>
</g>
<g>
</g>
<g>
</g>
<g>
</g>
</svg>
